CheltenhamClassicMediumltalic.glyphspackage
{
glyphname = exclam;
layers = (
{
hints = (
{
horizontal = 1;
place = (-6,137);
type = Stem;
},
{
place = (39,136);
type = Stem;
}
);
layerId = "59F106EB-9104-49C8-9C07-57E2EFBDDD8D";
shapes = (
{
closed = 1;
nodes = (
(316,710,o),
(299,742,o),
(255,742,cs),
(221,742,o),
(198,710,o),
(189,674,cs),
(174,616,o),
(177,566,o),
(164,467,cs),
(153,377,o),
(127,278,o),
(114,214,cs),
(113,208,o),
(119,192,o),
(137,192,cs),
(147,192,o),
(157,198,o),
(159,203,cs),
(177,266,o),
(204,363,o),
(236,448,cs),
(272,542,o),
(297,584,o),
(312,643,cs),
(315,653,o),
(316,665,o),
(316,675,cs)
);
},
{
closed = 1;
nodes = (
(170,100,o),
(140,131,o),
(101,131,cs),
(63,131,o),
(34,100,o),
(34,63,cs),
(34,25,o),
(63,-6,o),
(101,-6,cs),
(140,-6,o),
(170,25,o),
(170,63,cs)
);
}
);
width = 281;
}
);
unicode = 33;
}
{
glyphname = quotedbl;
layers = (
{
hints = (
{
horizontal = 1;
place = (436,304);
type = Stem;
}
);
layerId = "59F106EB-9104-49C8-9C07-57E2EFBDDD8D";
shapes = (
{
closed = 1;
nodes = (
(434,718,o),
(412,740,o),
(378,740,cs),
(351,740,o),
(330,723,o),
(323,693,cs),
(314,657,o),
(308,542,o),
(299,451,c),
(302,445,o),
(307,436,o),
(318,436,cs),
(327,436,o),
(330,438,o),
(335,442,c),
(371,527,o),
(423,630,o),
(432,666,cs),
(434,673,o),
(434,680,o),
(434,686,cs)
);
},
{
closed = 1;
nodes = (
(274,718,o),
(252,740,o),
(218,740,cs),
(191,740,o),
(170,723,o),
(163,693,cs),
(154,657,o),
(148,542,o),
(139,451,c),
(142,445,o),
(147,436,o),
(158,436,cs),
(167,436,o),
(170,438,o),
(175,442,c),
(211,527,o),
(263,630,o),
(272,666,cs),
(274,673,o),
(274,680,o),
(274,686,cs)
);
}
);
width = 399;
}
);
unicode = 34;
}
{
glyphname = numbersign;
layers = (
{
hints = (
{
horizontal = 1;
place = (-9,20);
type = Stem;
},
{
horizontal = 1;
place = (183,87);
type = Stem;
},
{
horizontal = 1;
place = (418,87);
type = Stem;
}
);
layerId = "59F106EB-9104-49C8-9C07-57E2EFBDDD8D";
shapes = (
{
closed = 1;
nodes = (
(559,505,l),
(614,685,l),
(563,685,l),
(508,505,l),
(381,505,l),
(436,685,l),
(385,685,l),
(330,505,l),
(176,505,l),
(149,418,l),
(303,418,l),
(258,270,l),
(108,270,l),
(81,183,l),
(231,183,l),
(173,-9,l),
(224,-9,l),
(282,183,l),
(409,183,l),
(351,-9,l),
(402,-9,l),
(460,183,l),
(616,183,l),
(643,270,l),
(487,270,l),
(532,418,l),
(684,418,l),
(711,505,l)
);
},
{
closed = 1;
nodes = (
(436,270,l),
(309,270,l),
(354,418,l),
(481,418,l)
);
}
);
width = 763;
}
);
unicode = 35;
}
{
glyphname = dollar;
layers = (
{
hints = (
{
horizontal = 1;
place = (-7,50);
type = Stem;
},
{
horizontal = 1;
place = (639,50);
type = Stem;
},
{
horizontal = 1;
place = (740,-20);
target = down;
type = TopGhost;
},
{
place = (118,104);
type = Stem;
},
{
place = (395,104);
type = Stem;
}
);
layerId = "59F106EB-9104-49C8-9C07-57E2EFBDDD8D";
shapes = (
{
closed = 1;
nodes = (
(536,632,o),
(475,670,o),
(408,683,c),
(423,740,l),
(376,740,l),
(362,688,l),
(357,689,o),
(351,689,o),
(346,689,cs),
(214,689,o),
(113,603,o),
(113,493,cs),
(113,418,o),
(163,367,o),
(214,337,cs),
(226,330,o),
(250,319,o),
(268,311,c),
(202,43,l),
(142,51,o),
(112,80,o),
(98,101,c),
(132,118,o),
(148,142,o),
(148,169,cs),
(148,202,o),
(126,225,o),
(82,225,cs),
(46,225,o),
(14,194,o),
(14,148,cs),
(14,53,o),
(98,7,o),
(190,-4,c),
(156,-136,l),
(203,-136,l),
(236,-7,l),
(237,-7,o),
(237,-7,o),
(238,-7,c),
(391,-7,o),
(494,97,o),
(494,208,cs),
(494,269,o),
(458,318,o),
(408,352,cs),
(384,368,o),
(360,381,o),
(334,393,c),
(396,635,l),
(430,625,o),
(448,604,o),
(456,594,c),
(434,582,o),
(416,565,o),
(416,538,cs),
(416,506,o),
(446,487,o),
(477,487,cs),
(508,487,o),
(536,513,o),
(536,557,cs)
);
},
{
closed = 1;
nodes = (
(292,407,l),
(282,412,o),
(273,417,o),
(264,423,cs),
(226,449,o),
(213,486,o),
(213,518,cs),
(213,580,o),
(257,641,o),
(345,641,cs),
(347,641,o),
(350,641,o),
(351,641,c)
);
},
{
closed = 1;
nodes = (
(394,101,o),
(330,45,o),
(247,41,c),
(310,297,l),
(317,294,o),
(323,291,o),
(328,288,cs),
(379,259,o),
(394,214,o),
(394,184,cs)
);
}
);
width = 529;
}
);
unicode = 36;
}
{
glyphname = percent;
layers = (
{
hints = (
{
horizontal = 1;
place = (-9,50);
type = Stem;
},
{
horizontal = 1;
place = (307,50);
type = Stem;
},
{
horizontal = 1;
place = (651,43);
type = Stem;
},
{
place = (72,85);
type = Stem;
},
{
place = (328,85);
type = Stem;
},
{
place = (510,85);
type = Stem;
},
{
place = (765,85);
type = Stem;
}
);
layerId = "59F106EB-9104-49C8-9C07-57E2EFBDDD8D";
shapes = (
{
closed = 1;
nodes = (
(845,306,o),
(789,378,o),
(708,378,cs),
(592,378,o),
(505,260,o),
(505,149,cs),
(505,56,o),
(569,-9,o),
(646,-9,cs),
(748,-9,o),
(845,96,o),
(845,218,cs)
);
},
{
closed = 1;
nodes = (
(694,703,l),
(648,643,o),
(558,554,o),
(406,536,c),
(403,625,o),
(349,694,o),
(270,694,cs),
(154,694,o),
(67,576,o),
(67,465,cs),
(67,371,o),
(131,307,o),
(208,307,cs),
(298,307,o),
(381,381,o),
(403,492,c),
(512,500,o),
(577,553,o),
(596,567,c),
(599,565,l),
(166,12,l),
(228,-36,l),
(739,672,l)
);
},
{
closed = 1;
nodes = (
(323,555,o),
(323,545,o),
(322,537,c),
(252,548,o),
(224,586,o),
(224,617,cs),
(224,641,o),
(242,652,o),
(264,652,cs),
(303,652,o),
(323,623,o),
(323,563,cs)
);
},
{
closed = 1;
nodes = (
(760,172,o),
(727,37,o),
(647,37,cs),
(614,37,o),
(590,60,o),
(590,107,cs),
(590,180,o),
(616,332,o),
(703,332,cs),
(742,332,o),
(760,305,o),
(760,249,cs)
);
},
{
closed = 1;
nodes = (
(301,418,o),
(266,356,o),
(209,356,cs),
(176,356,o),
(152,379,o),
(152,428,cs),
(152,480,o),
(162,547,o),
(188,602,c),
(195,539,o),
(246,507,o),
(315,494,c)
);
}
);
width = 849;
}
);
unicode = 37;
}
{
glyphname = ampersand;
layers = (
{
hints = (
{
horizontal = 1;
place = (-11,69);
type = Stem;
},
{
horizontal = 1;
place = (691,50);
type = Stem;
},
{
place = (12,113);
type = Stem;
},
{
place = (232,104);
type = Stem;
},
{
place = (488,95);
type = Stem;
}
);
layerId = "59F106EB-9104-49C8-9C07-57E2EFBDDD8D";
shapes = (
{
closed = 1;
nodes = (
(503,396,l),
(498,370,ls),
(496,358,o),
(500,355,o),
(523,344,cs),
(547,332,o),
(555,329,o),
(555,317,cs),
(555,309,o),
(550,295,o),
(532,269,cs),
(512,241,o),
(481,203,o),
(447,173,c),
(416,236,o),
(376,329,o),
(354,409,c),
(492,452,o),
(578,519,o),
(578,616,cs),
(578,676,o),
(537,741,o),
(436,741,cs),
(303,741,o),
(227,646,o),
(227,537,cs),
(227,502,o),
(233,463,o),
(241,425,c),
(92,363,o),
(7,280,o),
(7,161,cs),
(7,68,o),
(70,-11,o),
(202,-11,cs),
(271,-11,o),
(328,21,o),
(394,68,c),
(432,21,o),
(477,-11,o),
(538,-11,cs),
(611,-11,o),
(650,8,o),
(697,37,c),
(685,85,l),
(652,69,o),
(619,57,o),
(594,57,cs),
(547,57,o),
(507,81,o),
(473,131,c),
(516,170,o),
(558,215,o),
(592,257,cs),
(649,325,o),
(659,326,o),
(696,338,cs),
(718,345,o),
(737,352,o),
(740,368,cs),
(745,396,l)
);
},
{
closed = 1;
nodes = (
(487,587,o),
(478,504,o),
(342,455,c),
(334,492,o),
(330,525,o),
(330,554,cs),
(330,627,o),
(357,688,o),
(423,688,cs),
(457,688,o),
(487,664,o),
(487,618,cs)
);
},
{
closed = 1;
nodes = (
(328,86,o),
(294,68,o),
(251,68,cs),
(161,68,o),
(119,123,o),
(119,195,cs),
(119,266,o),
(153,327,o),
(254,377,c),
(289,260,o),
(325,181,o),
(366,110,c)
);
}
);
width = 741;
}
);
unicode = 38;
}
{
glyphname = quotesingle;
layers = (
{
hints = (
{
horizontal = 1;
place = (436,304);
type = Stem;
}
);
layerId = "59F106EB-9104-49C8-9C07-57E2EFBDDD8D";
shapes = (
{
closed = 1;
nodes = (
(274,718,o),
(252,740,o),
(218,740,cs),
(191,740,o),
(170,723,o),
(163,693,cs),
(154,657,o),
(148,542,o),
(139,451,c),
(142,445,o),
(147,436,o),
(158,436,cs),
(167,436,o),
(170,438,o),
(175,442,c),
(211,527,o),
(263,630,o),
(272,666,cs),
(274,673,o),
(274,680,o),
(274,686,cs)
);
}
);
width = 239;
}
);
unicode = 39;
}
{
glyphname = parenleft;
layers = (
{
hints = (
{
horizontal = 1;
place = (740,-20);
target = down;
type = TopGhost;
},
{
place = (40,95);
type = Stem;
}
);
layerId = "59F106EB-9104-49C8-9C07-57E2EFBDDD8D";
shapes = (
{
closed = 1;
nodes = (
(404,740,l),
(200,605,o),
(35,427,o),
(35,169,cs),
(35,28,o),
(84,-103,o),
(169,-188,c),
(214,-161,l),
(157,-95,o),
(132,0,o),
(132,104,cs),
(132,373,o),
(247,573,o),
(431,701,c)
);
}
);
width = 332;
}
);
unicode = 40;
}
{
glyphname = parenright;
layers = (
{
hints = (
{
horizontal = 1;
place = (739,-20);
target = down;
type = TopGhost;
},
{
place = (202,95);
type = Stem;
}
);
layerId = "59F106EB-9104-49C8-9C07-57E2EFBDDD8D";
shapes = (
{
closed = 1;
nodes = (
(292,524,o),
(242,654,o),
(158,739,c),
(113,712,l),
(169,647,o),
(195,554,o),
(195,448,cs),
(195,177,o),
(80,-22,o),
(-104,-150,c),
(-77,-189,l),
(127,-54,o),
(292,125,o),
(292,383,cs)
);
}
);
width = 332;
}
);
unicode = 41;
}
{
glyphname = asterisk;
layers = (
{
hints = (
{
horizontal = 1;
place = (733,-20);
target = down;
type = TopGhost;
},
{
place = (296,55);
type = Stem;
}
);
layerId = "59F106EB-9104-49C8-9C07-57E2EFBDDD8D";
shapes = (
{
closed = 1;
nodes = (
(492,632,o),
(474,650,o),
(449,650,cs),
(421,650,o),
(398,621,o),
(383,601,cs),
(373,586,o),
(363,575,o),
(321,552,c),
(323,640,o),
(348,633,o),
(348,689,cs),
(348,716,o),
(331,733,o),
(306,733,cs),
(284,733,o),
(265,718,o),
(265,689,cs),
(265,633,o),
(289,640,o),
(292,552,c),
(246,576,o),
(241,588,o),
(228,606,cs),
(212,629,o),
(187,652,o),
(162,652,cs),
(140,652,o),
(121,633,o),
(121,610,cs),
(121,596,o),
(127,582,o),
(144,572,cs),
(192,543,o),
(201,567,o),
(276,526,c),
(201,485,o),
(192,511,o),
(143,482,cs),
(127,472,o),
(120,459,o),
(120,444,cs),
(120,421,o),
(138,403,o),
(163,403,cs),
(191,403,o),
(214,432,o),
(229,452,cs),
(239,467,o),
(249,478,o),
(291,501,c),
(288,411,o),
(264,420,o),
(264,364,cs),
(264,337,o),
(281,320,o),
(306,320,cs),
(328,320,o),
(347,335,o),
(347,364,cs),
(347,420,o),
(322,412,o),
(320,501,c),
(364,476,o),
(371,465,o),
(384,447,cs),
(400,424,o),
(425,401,o),
(450,401,cs),
(472,401,o),
(491,420,o),
(491,443,cs),
(491,457,o),
(485,472,o),
(468,482,cs),
(420,511,o),
(409,485,o),
(335,526,c),
(410,568,o),
(420,542,o),
(469,571,cs),
(485,581,o),
(492,594,o),
(492,609,cs)
);
}
);
width = 489;
}
);
unicode = 42;
}
{
glyphname = plus;
layers = (
{
hints = (
{
horizontal = 1;
place = (257,69);
type = Stem;
},
{
place = (355,73);
type = Stem;
}
);
layerId = "59F106EB-9104-49C8-9C07-57E2EFBDDD8D";
shapes = (
{
closed = 1;
nodes = (
(648,329,l),
(424,329,l),
(424,551,l),
(350,551,l),
(350,329,l),
(126,329,l),
(126,257,l),
(350,257,l),
(350,35,l),
(424,35,l),
(424,257,l),
(648,257,l)
);
}
);
width = 745;
}
);
unicode = 43;
}
{
glyphname = comma;
layers = (
{
hints = (
{
place = (29,136);
type = Stem;
}
);
layerId = "59F106EB-9104-49C8-9C07-57E2EFBDDD8D";
shapes = (
{
closed = 1;
nodes = (
(160,101,o),
(137,130,o),
(93,130,cs),
(60,130,o),
(22,103,o),
(22,59,cs),
(22,33,o),
(36,10,o),
(85,0,c),
(62,-53,o),
(13,-86,o),
(-34,-115,c),
(-8,-150,l),
(107,-100,o),
(160,-9,o),
(160,61,cs)
);
}
);
width = 243;
}
);
unicode = 44;
}
{
glyphname = hyphen;
layers = (
{
hints = (
{
horizontal = 1;
place = (180,87);
type = Stem;
}
);
layerId = "59F106EB-9104-49C8-9C07-57E2EFBDDD8D";
shapes = (
{
closed = 1;
nodes = (
(56,266,l),
(32,180,l),
(257,180,l),
(281,266,l)
);
}
);
width = 306;
}
);
unicode = 45;
}
{
glyphname = period;
layers = (
{
hints = (
{
horizontal = 1;
place = (-6,137);
type = Stem;
},
{
place = (28,136);
type = Stem;
}
);
layerId = "59F106EB-9104-49C8-9C07-57E2EFBDDD8D";
shapes = (
{
closed = 1;
nodes = (
(159,100,o),
(129,131,o),
(90,131,cs),
(52,131,o),
(23,100,o),
(23,63,cs),
(23,25,o),
(52,-6,o),
(90,-6,cs),
(129,-6,o),
(159,25,o),
(159,63,cs)
);
}
);
width = 243;
}
);
unicode = 46;
}
{
glyphname = slash;
layers = (
{
hints = (
{
horizontal = 1;
place = (730,-20);
target = down;
type = TopGhost;
}
);
layerId = "59F106EB-9104-49C8-9C07-57E2EFBDDD8D";
shapes = (
{
closed = 1;
nodes = (
(442,730,l),
(-115,-190,l),
(-38,-190,l),
(520,730,l)
);
}
);
width = 439;
}
);
unicode = 47;
}
{
glyphname = zero;
layers = (
{
hints = (
{
horizontal = 1;
place = (-9,60);
type = Stem;
},
{
horizontal = 1;
place = (634,60);
type = Stem;
},
{
place = (55,104);
type = Stem;
},
{
place = (470,104);
type = Stem;
}
);
layerId = "59F106EB-9104-49C8-9C07-57E2EFBDDD8D";
shapes = (
{
closed = 1;
nodes = (
(569,591,o),
(491,694,o),
(366,694,cs),
(188,694,o),
(50,469,o),
(50,249,cs),
(50,90,o),
(130,-9,o),
(253,-9,cs),
(429,-9,o),
(569,216,o),
(569,436,cs)
);
},
{
closed = 1;
nodes = (
(462,317,o),
(389,48,o),
(254,48,cs),
(192,48,o),
(156,90,o),
(156,189,cs),
(156,364,o),
(229,638,o),
(364,638,cs),
(426,638,o),
(462,595,o),
(462,496,cs)
);
}
);
width = 575;
}
);
unicode = 48;
}
{
glyphname = one;
layers = (
{
hints = (
{
horizontal = 1;
place = (0,20);
type = Stem;
}
);
layerId = "59F106EB-9104-49C8-9C07-57E2EFBDDD8D";
shapes = (
{
closed = 1;
nodes = (
(309,687,l),
(141,627,l),
(130,584,l),
(236,584,l),
(113,92,ls),
(106,66,o),
(91,63,o),
(61,52,cs),
(36,43,o),
(19,41,o),
(16,28,cs),
(9,0,l),
(280,0,l),
(285,19,ls),
(286,24,o),
(288,29,o),
(288,34,cs),
(288,43,o),
(263,49,o),
(252,53,cs),
(230,60,o),
(217,66,o),
(217,83,cs),
(217,87,o),
(219,100,o),
(223,116,cs),
(365,687,l)
);
}
);
width = 383;
}
);
unicode = 49;
}
{
glyphname = two;
layers = (
{
hints = (
{
horizontal = 1;
place = (0,96);
type = Stem;
},
{
horizontal = 1;
place = (634,60);
type = Stem;
},
{
place = (78,123);
type = Stem;
},
{
place = (393,113);
type = Stem;
}
);
layerId = "59F106EB-9104-49C8-9C07-57E2EFBDDD8D";
shapes = (
{
closed = 1;
nodes = (
(501,618,o),
(418,694,o),
(296,694,cs),
(173,694,o),
(73,617,o),
(73,543,cs),
(73,503,o),
(96,474,o),
(139,474,cs),
(173,474,o),
(198,498,o),
(198,533,cs),
(198,557,o),
(185,576,o),
(169,592,c),
(185,617,o),
(231,637,o),
(277,637,cs),
(341,637,o),
(387,591,o),
(387,533,cs),
(387,456,o),
(340,391,o),
(231,304,cs),
(148,238,o),
(41,137,o),
(-10,80,c),
(-29,0,l),
(405,0,l),
(452,167,l),
(417,167,ls),
(405,167,o),
(399,167,o),
(389,149,cs),
(366,109,o),
(346,97,o),
(310,97,cs),
(79,97,l),
(127,141,o),
(181,181,o),
(268,244,cs),
(360,310,o),
(501,383,o),
(501,527,cs)
);
}
);
width = 490;
}
);
unicode = 50;
}
{
glyphname = three;
layers = (
{
hints = (
{
horizontal = 1;
place = (-9,60);
type = Stem;
},
{
horizontal = 1;
place = (343,60);
type = Stem;
},
{
horizontal = 1;
place = (634,60);
type = Stem;
},
{
place = (99,123);
type = Stem;
},
{
place = (352,113);
type = Stem;
}
);
layerId = "59F106EB-9104-49C8-9C07-57E2EFBDDD8D";
shapes = (
{
closed = 1;
nodes = (
(499,631,o),
(410,694,o),
(295,694,cs),
(200,694,o),
(94,643,o),
(94,574,cs),
(94,532,o),
(120,511,o),
(156,511,cs),
(191,511,o),
(213,535,o),
(213,568,cs),
(213,586,o),
(206,598,o),
(193,612,c),
(211,625,o),
(241,638,o),
(279,638,cs),
(349,638,o),
(387,598,o),
(387,548,cs),
(387,453,o),
(324,403,o),
(182,403,c),
(169,347,l),
(283,343,o),
(348,300,o),
(348,224,cs),
(348,131,o),
(289,47,o),
(184,47,cs),
(132,47,o),
(97,66,o),
(85,87,c),
(102,103,o),
(113,120,o),
(113,148,cs),
(113,175,o),
(90,200,o),
(50,200,cs),
(9,200,o),
(-15,165,o),
(-15,129,cs),
(-15,48,o),
(71,-9,o),
(190,-9,cs),
(335,-9,o),
(460,80,o),
(460,214,cs),
(460,297,o),
(398,349,o),
(324,370,c),
(419,391,o),
(499,456,o),
(499,547,cs)
);
}
);
width = 494;
}
);
unicode = 51;
}
{
glyphname = four;
layers = (
{
hints = (
{
horizontal = 1;
place = (0,20);
type = Stem;
},
{
horizontal = 1;
place = (175,69);
type = Stem;
}
);
layerId = "59F106EB-9104-49C8-9C07-57E2EFBDDD8D";
shapes = (
{
closed = 1;
nodes = (
(440,693,l),
(8,249,l),
(-10,175,l),
(276,175,l),
(255,91,ls),
(249,67,o),
(244,62,o),
(218,50,cs),
(196,40,o),
(191,38,o),
(189,28,cs),
(182,0,l),
(390,0,l),
(394,16,ls),
(396,23,o),
(398,31,o),
(398,34,cs),
(398,39,o),
(387,47,o),
(382,50,cs),
(367,59,o),
(355,64,o),
(355,78,cs),
(355,82,o),
(358,96,o),
(361,107,cs),
(378,175,l),
(479,175,l),
(495,241,l),
(394,241,l),
(507,693,l)
);
},
{
closed = 1;
nodes = (
(292,241,l),
(74,241,l),
(367,543,l)
);
}
);
width = 508;
}
);
unicode = 52;
}
{
glyphname = five;
layers = (
{
hints = (
{
horizontal = 1;
place = (-9,60);
type = Stem;
},
{
horizontal = 1;
place = (365,69);
type = Stem;
},
{
horizontal = 1;
place = (588,96);
type = Stem;
},
{
place = (6,123);
type = Stem;
},
{
place = (371,113);
type = Stem;
}
);
layerId = "59F106EB-9104-49C8-9C07-57E2EFBDDD8D";
shapes = (
{
closed = 1;
nodes = (
(528,729,ls),
(517,729,o),
(510,725,o),
(501,710,cs),
(488,688,o),
(482,684,o),
(447,684,cs),
(183,684,l),
(76,341,l),
(111,310,l),
(156,338,o),
(189,366,o),
(243,366,cs),
(325,366,o),
(365,308,o),
(365,240,cs),
(365,145,o),
(307,46,o),
(196,46,cs),
(150,46,o),
(112,66,o),
(101,88,c),
(115,106,o),
(128,121,o),
(128,151,cs),
(128,177,o),
(106,202,o),
(67,202,cs),
(25,202,o),
(1,164,o),
(1,130,cs),
(1,52,o),
(82,-9,o),
(204,-9,cs),
(350,-9,o),
(479,96,o),
(479,245,cs),
(479,339,o),
(411,434,o),
(282,434,cs),
(235,434,o),
(196,419,o),
(153,395,c),
(217,588,l),
(517,588,l),
(561,729,l)
);
}
);
width = 499;
}
);
unicode = 53;
}
{
glyphname = six;
layers = (
{
hints = (
{
horizontal = 1;
place = (-9,60);
type = Stem;
},
{
horizontal = 1;
place = (358,69);
type = Stem;
},
{
horizontal = 1;
place = (634,60);
type = Stem;
},
{
place = (52,104);
type = Stem;
},
{
place = (413,113);
type = Stem;
}
);
layerId = "59F106EB-9104-49C8-9C07-57E2EFBDDD8D";
shapes = (
{
closed = 1;
nodes = (
(558,649,o),
(495,694,o),
(401,694,cs),
(197,694,o),
(47,464,o),
(47,242,cs),
(47,97,o),
(119,-9,o),
(259,-9,cs),
(417,-9,o),
(521,122,o),
(521,246,cs),
(521,345,o),
(452,427,o),
(337,427,cs),
(276,427,o),
(218,402,o),
(174,371,c),
(218,562,o),
(311,638,o),
(389,638,cs),
(416,638,o),
(437,629,o),
(446,624,c),
(443,610,o),
(437,590,o),
(437,572,cs),
(437,542,o),
(456,521,o),
(492,521,cs),
(530,521,o),
(558,552,o),
(558,594,cs)
);
},
{
closed = 1;
nodes = (
(406,155,o),
(358,46,o),
(259,46,cs),
(183,46,o),
(151,123,o),
(152,214,c),
(152,243,o),
(156,271,o),
(162,302,c),
(181,321,o),
(242,357,o),
(302,357,cs),
(372,357,o),
(406,307,o),
(406,247,cs)
);
}
);
width = 545;
}
);
unicode = 54;
}
{
glyphname = seven;
layers = (
{
hints = (
{
horizontal = 1;
place = (-9,20);
type = Stem;
},
{
horizontal = 1;
place = (588,96);
type = Stem;
}
);
layerId = "59F106EB-9104-49C8-9C07-57E2EFBDDD8D";
shapes = (
{
closed = 1;
nodes = (
(234,684,ls),
(193,684,o),
(136,686,o),
(106,690,c),
(55,529,l),
(92,529,ls),
(103,529,o),
(110,532,o),
(119,546,cs),
(133,569,o),
(143,588,o),
(178,588,cs),
(427,588,l),
(364,513,o),
(286,409,o),
(221,312,cs),
(145,199,o),
(94,104,o),
(94,48,cs),
(94,6,o),
(114,-9,o),
(149,-9,cs),
(192,-9,o),
(215,19,o),
(224,82,cs),
(255,290,o),
(374,431,o),
(527,626,c),
(542,684,l)
);
}
);
width = 449;
}
);
unicode = 55;
}
{
glyphname = eight;
layers = (
{
hints = (
{
horizontal = 1;
place = (-10,60);
type = Stem;
},
{
horizontal = 1;
place = (634,60);
type = Stem;
},
{
place = (114,95);
type = Stem;
},
{
place = (396,104);
type = Stem;
}
);
layerId = "59F106EB-9104-49C8-9C07-57E2EFBDDD8D";
shapes = (
{
closed = 1;
nodes = (
(524,628,o),
(449,694,o),
(334,694,cs),
(215,694,o),
(110,608,o),
(110,495,cs),
(110,441,o),
(144,398,o),
(192,361,c),
(112,333,o),
(14,264,o),
(14,159,cs),
(14,63,o),
(101,-10,o),
(237,-10,cs),
(373,-10,o),
(495,73,o),
(495,205,cs),
(495,278,o),
(446,323,o),
(371,370,c),
(447,396,o),
(524,465,o),
(524,546,cs)
);
},
{
closed = 1;
nodes = (
(433,473,o),
(376,423,o),
(318,402,c),
(259,436,o),
(207,472,o),
(207,527,cs),
(207,588,o),
(260,638,o),
(328,638,cs),
(390,638,o),
(433,598,o),
(433,546,cs)
);
},
{
closed = 1;
nodes = (
(392,101,o),
(323,46,o),
(241,46,cs),
(163,46,o),
(109,95,o),
(109,160,cs),
(109,263,o),
(197,308,o),
(249,326,c),
(326,284,o),
(392,245,o),
(392,178,cs)
);
}
);
width = 515;
}
);
unicode = 56;
}
{
glyphname = nine;
layers = (
{
hints = (
{
horizontal = 1;
place = (-9,60);
type = Stem;
},
{
horizontal = 1;
place = (257,69);
type = Stem;
},
{
horizontal = 1;
place = (634,60);
type = Stem;
},
{
place = (70,113);
type = Stem;
},
{
place = (438,104);
type = Stem;
}
);
layerId = "59F106EB-9104-49C8-9C07-57E2EFBDDD8D";
shapes = (
{
closed = 1;
nodes = (
(537,587,o),
(466,694,o),
(324,694,cs),
(179,694,o),
(65,569,o),
(65,439,cs),
(65,333,o),
(138,257,o),
(246,257,cs),
(307,257,o),
(366,283,o),
(412,316,c),
(367,123,o),
(279,47,o),
(193,47,cs),
(163,47,o),
(138,55,o),
(129,62,c),
(134,84,o),
(138,107,o),
(138,118,cs),
(138,147,o),
(119,166,o),
(85,166,cs),
(46,166,o),
(17,135,o),
(17,95,cs),
(17,42,o),
(71,-9,o),
(181,-9,cs),
(395,-9,o),
(537,227,o),
(537,444,cs)
);
},
{
closed = 1;
nodes = (
(433,447,o),
(429,416,o),
(423,384,c),
(403,364,o),
(343,328,o),
(284,328,cs),
(213,328,o),
(179,371,o),
(179,436,cs),
(179,531,o),
(236,638,o),
(325,638,cs),
(401,638,o),
(433,566,o),
(433,477,cs)
);
}
);
width = 545;
}
);
unicode = 57;
}
{
glyphname = colon;
layers = (
{
hints = (
{
horizontal = 1;
place = (-6,137);
type = Stem;
},
{
horizontal = 1;
place = (300,137);
type = Stem;
},
{
place = (39,136);
type = Stem;
}
);
layerId = "59F106EB-9104-49C8-9C07-57E2EFBDDD8D";
shapes = (
{
closed = 1;
nodes = (
(241,406,o),
(211,437,o),
(172,437,cs),
(134,437,o),
(105,406,o),
(105,369,cs),
(105,331,o),
(134,300,o),
(172,300,cs),
(211,300,o),
(241,331,o),
(241,369,cs)
);
},
{
closed = 1;
nodes = (
(170,100,o),
(140,131,o),
(101,131,cs),
(63,131,o),
(34,100,o),
(34,63,cs),
(34,25,o),
(63,-6,o),
(101,-6,cs),
(140,-6,o),
(170,25,o),
(170,63,cs)
);
}
);
width = 277;
}
);
unicode = 58;
}
{
glyphname = semicolon;
layers = (
{
hints = (
{
horizontal = 1;
place = (300,137);
type = Stem;
},
{
place = (38,136);
type = Stem;
}
);
layerId = "59F106EB-9104-49C8-9C07-57E2EFBDDD8D";
shapes = (
{
closed = 1;
nodes = (
(241,406,o),
(211,437,o),
(172,437,cs),
(134,437,o),
(105,406,o),
(105,369,cs),
(105,331,o),
(134,300,o),
(172,300,cs),
(211,300,o),
(241,331,o),
(241,369,cs)
);
},
{
closed = 1;
nodes = (
(171,101,o),
(148,130,o),
(104,130,cs),
(71,130,o),
(33,103,o),
(33,59,cs),
(33,33,o),
(47,10,o),
(96,0,c),
(73,-53,o),
(24,-86,o),
(-23,-115,c),
(3,-150,l),
(118,-100,o),
(171,-9,o),
(171,61,cs)
);
}
);
width = 277;
}
);
unicode = 59;
}
{
glyphname = less;
layers = (
{
layerId = "59F106EB-9104-49C8-9C07-57E2EFBDDD8D";
shapes = (
{
closed = 1;
nodes = (
(646,104,l),
(222,293,l),
(646,482,l),
(646,564,l),
(130,329,l),
(130,257,l),
(646,22,l)
);
}
);
width = 745;
}
);
unicode = 60;
}
{
glyphname = equal;
layers = (
{
hints = (
{
horizontal = 1;
place = (144,77);
type = Stem;
},
{
horizontal = 1;
place = (329,77);
type = Stem;
}
);
layerId = "59F106EB-9104-49C8-9C07-57E2EFBDDD8D";
shapes = (
{
closed = 1;
nodes = (
(644,406,l),
(132,406,l),
(132,332,l),
(644,332,l)
);
},
{
closed = 1;
nodes = (
(644,218,l),
(132,218,l),
(132,144,l),
(644,144,l)
);
}
);
width = 745;
}
);
unicode = 61;
}
{
glyphname = greater;
layers = (
{
layerId = "59F106EB-9104-49C8-9C07-57E2EFBDDD8D";
shapes = (
{
closed = 1;
nodes = (
(649,329,l),
(133,564,l),
(133,482,l),
(557,293,l),
(133,104,l),
(133,22,l),
(649,257,l)
);
}
);
width = 745;
}
);
unicode = 62;
}
{
glyphname = question;
layers = (
{
hints = (
{
horizontal = 1;
place = (-6,137);
type = Stem;
},
{
horizontal = 1;
place = (690,50);
type = Stem;
},
{
place = (102,123);
type = Stem;
},
{
place = (345,113);
type = Stem;
}
);
layerId = "59F106EB-9104-49C8-9C07-57E2EFBDDD8D";
shapes = (
{
closed = 1;
nodes = (
(453,690,o),
(367,740,o),
(274,740,cs),
(165,740,o),
(97,678,o),
(97,620,cs),
(97,586,o),
(120,559,o),
(161,559,cs),
(193,559,o),
(218,581,o),
(218,621,cs),
(218,632,o),
(214,645,o),
(199,663,c),
(214,682,o),
(244,693,o),
(267,693,cs),
(306,693,o),
(342,671,o),
(342,610,cs),
(342,538,o),
(314,512,o),
(244,422,cs),
(186,346,o),
(157,269,o),
(147,210,cs),
(146,205,o),
(156,191,o),
(173,191,cs),
(188,191,o),
(201,199,o),
(202,205,cs),
(220,283,o),
(244,337,o),
(336,415,cs),
(409,476,o),
(453,520,o),
(453,595,cs)
);
},
{
closed = 1;
nodes = (
(223,100,o),
(193,131,o),
(154,131,cs),
(116,131,o),
(87,100,o),
(87,63,cs),
(87,25,o),
(116,-6,o),
(154,-6,cs),
(193,-6,o),
(223,25,o),
(223,63,cs)
);
}
);
width = 422;
}
);
unicode = 63;
}
{
glyphname = at;
layers = (
{
hints = (
{
horizontal = 1;
place = (-208,50);
type = Stem;
},
{
horizontal = 1;
place = (-3,60);
type = Stem;
},
{
horizontal = 1;
place = (388,43);
type = Stem;
},
{
horizontal = 1;
place = (585,50);
type = Stem;
},
{
place = (69,85);
type = Stem;
},
{
place = (287,104);
type = Stem;
},
{
place = (849,55);
type = Stem;
}
);
layerId = "59F106EB-9104-49C8-9C07-57E2EFBDDD8D";
shapes = (
{
closed = 1;
nodes = (
(899,511,o),
(762,635,o),
(551,635,cs),
(282,635,o),
(64,412,o),
(64,164,cs),
(64,-57,o),
(222,-208,o),
(472,-208,cs),
(582,-208,o),
(690,-174,o),
(785,-109,c),
(767,-69,l),
(682,-125,o),
(588,-156,o),
(474,-156,cs),
(277,-156,o),
(150,-32,o),
(150,157,cs),
(150,387,o),
(325,585,o),
(559,585,cs),
(740,585,o),
(844,471,o),
(844,332,cs),
(844,188,o),
(751,47,o),
(654,47,cs),
(636,47,o),
(631,55,o),
(631,79,cs),
(631,93,o),
(639,118,o),
(645,140,cs),
(728,424,l),
(678,424,l),
(645,395,l),
(626,421,o),
(600,431,o),
(560,431,cs),
(507,431,o),
(452,406,o),
(403,363,cs),
(334,301,o),
(282,212,o),
(282,128,cs),
(282,45,o),
(320,-3,o),
(396,-3,cs),
(456,-3,o),
(493,22,o),
(535,57,c),
(536,28,o),
(553,-8,o),
(608,-8,cs),
(769,-8,o),
(899,160,o),
(899,332,cs)
);
},
{
closed = 1;
nodes = (
(602,333,o),
(591,293,o),
(584,271,cs),
(528,99,l),
(505,73,o),
(471,56,o),
(446,56,cs),
(403,56,o),
(386,79,o),
(386,129,cs),
(386,189,o),
(422,274,o),
(467,330,cs),
(497,367,o),
(529,387,o),
(563,387,cs),
(586,387,o),
(602,376,o),
(602,349,cs)
);
}
);
width = 945;
}
);
unicode = 64;
}
{
glyphname = A;
layers = (
{
hints = (
{
horizontal = 1;
place = (0,20);
type = Stem;
},
{
horizontal = 1;
place = (202,60);
type = Stem;
},
{
horizontal = 1;
place = (741,-20);
target = down;
type = TopGhost;
}
);
layerId = "59F106EB-9104-49C8-9C07-57E2EFBDDD8D";
shapes = (
{
closed = 1;
nodes = (
(635,40,o),
(626,44,o),
(614,50,cs),
(599,58,o),
(578,69,o),
(575,91,cs),
(477,730,ls),
(476,737,o),
(472,741,o),
(464,741,cs),
(460,741,o),
(454,738,o),
(448,735,cs),
(422,722,o),
(406,713,o),
(381,704,cs),
(374,701,o),
(369,696,o),
(369,692,cs),
(369,688,o),
(369,685,o),
(370,678,cs),
(379,634,l),
(26,108,ls),
(3,74,o),
(-5,69,o),
(-38,51,cs),
(-60,39,o),
(-64,38,o),
(-67,28,cs),
(-74,0,l),
(130,0,l),
(135,19,ls),
(136,24,o),
(138,29,o),
(138,34,cs),
(138,40,o),
(129,44,o),
(117,50,cs),
(102,58,o),
(95,62,o),
(95,72,cs),
(95,83,o),
(109,108,o),
(124,131,cs),
(171,202,l),
(449,202,l),
(461,111,ls),
(463,97,o),
(463,85,o),
(463,76,cs),
(463,67,o),
(457,61,o),
(436,51,cs),
(412,40,o),
(409,38,o),
(406,28,cs),
(399,0,l),
(627,0,l),
(632,19,ls),
(633,24,o),
(635,29,o),
(635,34,cs)
);
},
{
closed = 1;
nodes = (
(207,259,l),
(396,550,l),
(440,259,l)
);
}
);
width = 679;
}
);
unicode = 65;
}
{
glyphname = B;
layers = (
{
hints = (
{
horizontal = 1;
place = (0,60);
type = Stem;
},
{
horizontal = 1;
place = (349,60);
type = Stem;
},
{
horizontal = 1;
place = (670,60);
type = Stem;
},
{
place = (467,123);
type = Stem;
}
);
layerId = "59F106EB-9104-49C8-9C07-57E2EFBDDD8D";
shapes = (
{
closed = 1;
nodes = (
(612,662,o),
(543,730,o),
(392,730,cs),
(143,730,l),
(138,711,ls),
(137,706,o),
(135,701,o),
(135,696,cs),
(135,690,o),
(144,686,o),
(156,680,cs),
(171,672,o),
(181,666,o),
(181,648,cs),
(181,644,o),
(179,630,o),
(175,614,cs),
(44,91,ls),
(38,67,o),
(37,64,o),
(9,51,cs),
(-15,40,o),
(-18,40,o),
(-21,28,cs),
(-28,0,l),
(290,0,ls),
(473,0,o),
(585,93,o),
(585,222,cs),
(585,310,o),
(521,366,o),
(430,384,c),
(543,410,o),
(612,486,o),
(612,576,cs)
);
},
{
closed = 1;
nodes = (
(490,476,o),
(434,409,o),
(310,409,cs),
(235,409,l),
(301,674,l),
(348,674,ls),
(450,674,o),
(490,635,o),
(490,574,cs)
);
},
{
closed = 1;
nodes = (
(460,120,o),
(403,57,o),
(254,57,cs),
(147,57,l),
(220,350,l),
(286,350,ls),
(410,350,o),
(460,314,o),
(460,236,cs)
);
}
);
width = 622;
}
);
unicode = 66;
}
{
glyphname = C;
layers = (
{
hints = (
{
horizontal = 1;
place = (-11,60);
type = Stem;
},
{
horizontal = 1;
place = (681,60);
type = Stem;
},
{
place = (53,113);
type = Stem;
}
);
layerId = "59F106EB-9104-49C8-9C07-57E2EFBDDD8D";
shapes = (
{
closed = 1;
nodes = (
(652,700,ls),
(643,700,o),
(641,697,o),
(624,687,cs),
(615,682,o),
(611,687,o),
(603,691,cs),
(554,719,o),
(517,741,o),
(421,741,cs),
(240,741,o),
(48,567,o),
(48,303,cs),
(48,129,o),
(141,-11,o),
(334,-11,cs),
(464,-11,o),
(561,67,o),
(602,122,c),
(569,168,l),
(540,136,o),
(458,52,o),
(343,52,cs),
(241,52,o),
(165,124,o),
(165,279,cs),
(165,492,o),
(286,683,o),
(433,683,cs),
(523,683,o),
(576,623,o),
(585,534,cs),
(586,524,o),
(592,515,o),
(605,515,cs),
(637,515,l),
(683,700,l)
);
}
);
width = 624;
}
);
unicode = 67;
}
{
glyphname = D;
layers = (
{
hints = (
{
horizontal = 1;
place = (0,60);
type = Stem;
},
{
horizontal = 1;
place = (670,60);
type = Stem;
},
{
place = (587,113);
type = Stem;
}
);
layerId = "59F106EB-9104-49C8-9C07-57E2EFBDDD8D";
shapes = (
{
closed = 1;
nodes = (
(695,612,o),
(577,730,o),
(361,730,cs),
(143,730,l),
(138,711,ls),
(137,706,o),
(135,701,o),
(135,696,cs),
(135,690,o),
(144,686,o),
(156,680,cs),
(171,672,o),
(181,666,o),
(181,648,cs),
(181,644,o),
(179,630,o),
(175,614,cs),
(44,91,ls),
(38,67,o),
(37,64,o),
(9,51,cs),
(-15,40,o),
(-18,40,o),
(-21,28,cs),
(-28,0,l),
(256,0,ls),
(378,0,o),
(487,37,o),
(571,120,cs),
(648,195,o),
(695,306,o),
(695,436,cs)
);
},
{
closed = 1;
nodes = (
(577,324,o),
(542,218,o),
(479,149,cs),
(412,77,o),
(336,57,o),
(239,57,cs),
(147,57,l),
(301,673,l),
(337,673,ls),
(489,673,o),
(577,602,o),
(577,456,cs)
);
}
);
width = 697;
}
);
unicode = 68;
}
{
glyphname = E;
layers = (
{
hints = (
{
horizontal = 1;
place = (0,60);
type = Stem;
},
{
horizontal = 1;
place = (343,60);
type = Stem;
},
{
horizontal = 1;
place = (670,60);
type = Stem;
}
);
layerId = "59F106EB-9104-49C8-9C07-57E2EFBDDD8D";
shapes = (
{
closed = 1;
nodes = (
(630,737,l),
(611,735,o),
(550,730,o),
(522,730,cs),
(143,730,l),
(138,711,ls),
(137,706,o),
(135,701,o),
(135,696,cs),
(135,690,o),
(144,686,o),
(156,680,cs),
(171,672,o),
(181,666,o),
(181,648,cs),
(181,644,o),
(179,630,o),
(175,614,cs),
(44,91,ls),
(38,66,o),
(37,64,o),
(9,51,cs),
(-15,40,o),
(-18,40,o),
(-21,28,cs),
(-28,0,l),
(494,0,l),
(537,172,l),
(506,172,ls),
(493,172,o),
(487,165,o),
(479,152,cs),
(431,81,o),
(405,58,o),
(335,58,cs),
(148,58,l),
(220,344,l),
(307,344,ls),
(341,344,o),
(349,333,o),
(356,298,cs),
(358,289,o),
(364,277,o),
(380,277,cs),
(406,277,l),
(453,466,l),
(426,466,ls),
(408,466,o),
(401,459,o),
(393,448,cs),
(369,414,o),
(355,403,o),
(315,403,cs),
(234,403,l),
(301,672,l),
(454,672,ls),
(532,672,o),
(536,659,o),
(546,597,cs),
(548,586,o),
(552,581,o),
(569,581,cs),
(591,581,l)
);
}
);
width = 583;
}
);
unicode = 69;
}
{
glyphname = F;
layers = (
{
hints = (
{
horizontal = 1;
place = (0,20);
type = Stem;
},
{
horizontal = 1;
place = (340,60);
type = Stem;
},
{
horizontal = 1;
place = (670,60);
type = Stem;
}
);
layerId = "59F106EB-9104-49C8-9C07-57E2EFBDDD8D";
shapes = (
{
closed = 1;
nodes = (
(662,737,l),
(644,735,o),
(593,730,o),
(554,730,cs),
(143,730,l),
(138,711,ls),
(137,706,o),
(135,701,o),
(135,696,cs),
(135,690,o),
(144,686,o),
(156,680,cs),
(171,672,o),
(181,666,o),
(181,648,cs),
(181,644,o),
(179,630,o),
(175,614,cs),
(44,91,ls),
(38,66,o),
(37,64,o),
(9,51,cs),
(-15,40,o),
(-18,40,o),
(-21,28,cs),
(-28,0,l),
(194,0,l),
(199,19,ls),
(200,24,o),
(202,29,o),
(202,34,cs),
(202,40,o),
(193,44,o),
(181,50,cs),
(166,58,o),
(156,64,o),
(156,82,cs),
(156,86,o),
(158,101,o),
(162,116,cs),
(218,341,l),
(328,341,ls),
(355,341,o),
(373,333,o),
(381,295,cs),
(383,286,o),
(391,274,o),
(405,274,cs),
(428,274,l),
(475,463,l),
(450,463,ls),
(432,463,o),
(424,457,o),
(416,445,cs),
(389,407,o),
(373,400,o),
(337,400,cs),
(233,400,l),
(301,672,l),
(484,672,ls),
(561,672,o),
(572,654,o),
(576,596,cs),
(577,584,o),
(581,580,o),
(597,580,cs),
(623,580,l)
);
}
);
width = 560;
}
);
unicode = 70;
}
{
glyphname = G;
layers = (
{
hints = (
{
horizontal = 1;
place = (-11,60);
type = Stem;
},
{
horizontal = 1;
place = (681,60);
type = Stem;
},
{
place = (53,113);
type = Stem;
}
);
layerId = "59F106EB-9104-49C8-9C07-57E2EFBDDD8D";
shapes = (
{
closed = 1;
nodes = (
(668,695,ls),
(660,695,o),
(658,692,o),
(641,682,cs),
(635,679,o),
(633,682,o),
(621,689,cs),
(563,724,o),
(516,741,o),
(440,741,cs),
(228,741,o),
(48,544,o),
(48,307,cs),
(48,139,o),
(153,-11,o),
(377,-11,cs),
(478,-11,o),
(563,26,o),
(636,55,c),
(640,71,ls),
(641,76,o),
(643,84,o),
(643,86,cs),
(643,92,o),
(636,96,o),
(618,102,cs),
(608,106,o),
(599,110,o),
(599,119,cs),
(599,128,o),
(602,139,o),
(604,147,cs),
(630,252,ls),
(634,268,o),
(646,298,o),
(655,321,c),
(478,321,l),
(473,302,ls),
(472,297,o),
(470,292,o),
(470,287,cs),
(470,281,o),
(479,277,o),
(491,271,cs),
(506,263,o),
(517,257,o),
(517,239,cs),
(517,235,o),
(515,221,o),
(511,205,cs),
(492,128,ls),
(479,77,o),
(461,44,o),
(379,44,cs),
(252,44,o),
(165,137,o),
(165,289,cs),
(165,492,o),
(284,683,o),
(439,683,cs),
(534,683,o),
(590,625,o),
(602,532,cs),
(603,521,o),
(608,513,o),
(622,513,cs),
(653,513,l),
(700,695,l)
);
}
);
width = 701;
}
);
unicode = 71;
}
{
glyphname = H;
layers = (
{
hints = (
{
horizontal = 1;
place = (0,20);
type = Stem;
},
{
horizontal = 1;
place = (346,60);
type = Stem;
},
{
horizontal = 1;
place = (730,-20);
target = down;
type = TopGhost;
}
);
layerId = "59F106EB-9104-49C8-9C07-57E2EFBDDD8D";
shapes = (
{
closed = 1;
nodes = (
(590,730,l),
(585,711,ls),
(584,706,o),
(582,701,o),
(582,696,cs),
(582,690,o),
(591,686,o),
(603,680,cs),
(618,672,o),
(628,666,o),
(628,648,cs),
(628,644,o),
(626,629,o),
(622,614,cs),
(570,406,l),
(235,406,l),
(293,638,ls),
(299,662,o),
(300,666,o),
(328,679,cs),
(352,690,o),
(355,690,o),
(358,702,cs),
(365,730,l),
(143,730,l),
(138,711,ls),
(137,706,o),
(135,701,o),
(135,696,cs),
(135,690,o),
(144,686,o),
(156,680,cs),
(171,672,o),
(181,666,o),
(181,648,cs),
(181,644,o),
(179,630,o),
(175,614,cs),
(44,91,ls),
(38,67,o),
(37,64,o),
(9,51,cs),
(-15,40,o),
(-18,40,o),
(-21,28,cs),
(-28,0,l),
(194,0,l),
(199,19,ls),
(200,24,o),
(202,29,o),
(202,34,cs),
(202,40,o),
(193,44,o),
(181,50,cs),
(166,58,o),
(156,64,o),
(156,82,cs),
(156,86,o),
(158,100,o),
(162,116,cs),
(220,346,l),
(555,346,l),
(491,91,ls),
(485,66,o),
(484,64,o),
(456,51,cs),
(432,40,o),
(429,40,o),
(426,28,cs),
(419,0,l),
(641,0,l),
(646,19,ls),
(647,24,o),
(649,29,o),
(649,34,cs),
(649,40,o),
(640,44,o),
(628,50,cs),
(613,58,o),
(603,64,o),
(603,82,cs),
(603,86,o),
(605,101,o),
(609,116,cs),
(740,638,ls),
(746,663,o),
(747,666,o),
(775,679,cs),
(799,690,o),
(802,690,o),
(805,702,cs),
(812,730,l)
);
}
);
width = 742;
}
);
unicode = 72;
}
{
glyphname = I;
layers = (
{
hints = (
{
horizontal = 1;
place = (0,20);
type = Stem;
},
{
horizontal = 1;
place = (730,-20);
target = down;
type = TopGhost;
}
);
layerId = "59F106EB-9104-49C8-9C07-57E2EFBDDD8D";
shapes = (
{
closed = 1;
nodes = (
(145,730,l),
(140,711,ls),
(139,706,o),
(137,701,o),
(137,696,cs),
(137,690,o),
(146,686,o),
(158,680,cs),
(173,672,o),
(184,666,o),
(184,648,cs),
(184,644,o),
(182,630,o),
(178,614,cs),
(47,91,ls),
(41,67,o),
(39,64,o),
(11,51,cs),
(-13,40,o),
(-16,40,o),
(-19,28,cs),
(-26,0,l),
(198,0,l),
(203,19,ls),
(204,24,o),
(206,29,o),
(206,34,cs),
(206,40,o),
(197,44,o),
(185,50,cs),
(170,58,o),
(159,64,o),
(159,82,cs),
(159,86,o),
(161,100,o),
(165,116,cs),
(296,638,ls),
(302,662,o),
(304,666,o),
(332,679,cs),
(356,690,o),
(359,690,o),
(362,702,cs),
(369,730,l)
);
}
);
width = 301;
}
);
unicode = 73;
}
{
glyphname = J;
layers = (
{
hints = (
{
horizontal = 1;
place = (-11,50);
type = Stem;
},
{
horizontal = 1;
place = (730,-20);
target = down;
type = TopGhost;
},
{
place = (-39,123);
type = Stem;
}
);
layerId = "59F106EB-9104-49C8-9C07-57E2EFBDDD8D";
shapes = (
{
closed = 1;
nodes = (
(298,730,l),
(293,711,ls),
(292,706,o),
(290,701,o),
(290,696,cs),
(290,690,o),
(299,686,o),
(311,680,cs),
(326,672,o),
(340,666,o),
(340,648,cs),
(340,644,o),
(338,629,o),
(334,614,cs),
(226,163,ls),
(204,71,o),
(154,39,o),
(104,39,cs),
(81,39,o),
(57,54,o),
(51,68,c),
(74,82,o),
(83,102,o),
(83,126,cs),
(83,156,o),
(62,177,o),
(26,177,cs),
(-19,177,o),
(-44,137,o),
(-44,94,cs),
(-44,41,o),
(5,-11,o),
(95,-11,cs),
(228,-11,o),
(319,77,o),
(349,203,cs),
(452,636,ls),
(458,660,o),
(459,666,o),
(487,679,cs),
(511,690,o),
(514,690,o),
(517,702,cs),
(524,730,l)
);
}
);
width = 450;
}
);
unicode = 74;
}
{
glyphname = K;
layers = (
{
hints = (
{
horizontal = 1;
place = (0,20);
type = Stem;
},
{
horizontal = 1;
place = (730,-20);
target = down;
type = TopGhost;
}
);
layerId = "59F106EB-9104-49C8-9C07-57E2EFBDDD8D";
shapes = (
{
closed = 1;
nodes = (
(497,730,l),
(492,711,ls),
(491,706,o),
(489,701,o),
(489,696,cs),
(489,690,o),
(498,686,o),
(510,680,cs),
(522,674,o),
(527,671,o),
(527,661,cs),
(527,654,o),
(502,629,o),
(466,600,cs),
(235,412,l),
(293,638,ls),
(299,662,o),
(300,666,o),
(328,679,cs),
(352,690,o),
(355,690,o),
(358,702,cs),
(365,730,l),
(143,730,l),
(138,711,ls),
(137,706,o),
(135,701,o),
(135,696,cs),
(135,690,o),
(144,686,o),
(156,680,cs),
(171,672,o),
(181,666,o),
(181,648,cs),
(181,644,o),
(179,630,o),
(175,614,cs),
(44,91,ls),
(38,67,o),
(37,64,o),
(9,51,cs),
(-15,40,o),
(-18,40,o),
(-21,28,cs),
(-28,0,l),
(194,0,l),
(199,19,ls),
(200,24,o),
(202,29,o),
(202,34,cs),
(202,40,o),
(193,44,o),
(181,50,cs),
(166,58,o),
(156,64,o),
(156,82,cs),
(156,86,o),
(158,100,o),
(162,116,cs),
(223,360,l),
(410,91,ls),
(414,85,o),
(421,72,o),
(421,66,cs),
(421,60,o),
(413,54,o),
(406,51,cs),
(385,42,o),
(381,39,o),
(379,30,cs),
(372,0,l),
(614,0,l),
(619,19,ls),
(620,23,o),
(622,29,o),
(622,34,cs),
(622,40,o),
(613,44,o),
(601,50,cs),
(582,59,o),
(555,67,o),
(526,109,cs),
(318,407,l),
(595,623,ls),
(630,650,o),
(648,663,o),
(680,673,cs),
(718,685,o),
(720,686,o),
(724,700,cs),
(732,730,l)
);
}
);
width = 663;
}
);
unicode = 75;
}
{
glyphname = L;
layers = (
{
hints = (
{
horizontal = 1;
place = (0,60);
type = Stem;
},
{
horizontal = 1;
place = (730,-20);
target = down;
type = TopGhost;
}
);
layerId = "59F106EB-9104-49C8-9C07-57E2EFBDDD8D";
shapes = (
{
closed = 1;
nodes = (
(503,173,ls),
(489,173,o),
(485,166,o),
(476,153,cs),
(428,82,o),
(400,58,o),
(340,58,cs),
(147,58,l),
(293,638,ls),
(299,662,o),
(300,666,o),
(328,679,cs),
(352,690,o),
(355,690,o),
(358,702,cs),
(365,730,l),
(143,730,l),
(138,711,ls),
(137,706,o),
(135,701,o),
(135,696,cs),
(135,690,o),
(144,686,o),
(156,680,cs),
(171,672,o),
(181,666,o),
(181,648,cs),
(181,644,o),
(179,630,o),
(175,614,cs),
(44,91,ls),
(38,67,o),
(37,64,o),
(9,51,cs),
(-15,40,o),
(-18,40,o),
(-21,28,cs),
(-28,0,l),
(491,0,l),
(534,173,l)
);
}
);
width = 569;
}
);
unicode = 76;
}
{
glyphname = M;
layers = (
{
hints = (
{
horizontal = 1;
place = (-2,20);
type = Stem;
},
{
horizontal = 1;
place = (643,87);
type = Stem;
}
);
layerId = "59F106EB-9104-49C8-9C07-57E2EFBDDD8D";
shapes = (
{
closed = 1;
nodes = (
(735,730,l),
(409,175,l),
(354,730,l),
(143,730,l),
(138,711,ls),
(137,706,o),
(135,701,o),
(135,696,cs),
(135,690,o),
(144,686,o),
(156,680,cs),
(171,672,o),
(181,666,o),
(181,648,cs),
(181,644,o),
(178,627,o),
(175,614,cs),
(49,112,ls),
(42,86,o),
(33,69,o),
(11,56,cs),
(-14,41,o),
(-20,39,o),
(-22,29,cs),
(-29,0,l),
(150,0,l),
(155,19,ls),
(156,24,o),
(158,29,o),
(158,34,cs),
(158,40,o),
(147,48,o),
(138,55,cs),
(120,69,o),
(117,78,o),
(117,91,cs),
(117,97,o),
(120,117,o),
(123,128,cs),
(252,644,l),
(260,644,l),
(323,10,ls),
(324,5,o),
(327,-2,o),
(346,-2,cs),
(365,-2,o),
(373,3,o),
(377,10,cs),
(756,648,l),
(764,648,l),
(622,91,ls),
(616,66,o),
(615,64,o),
(587,51,cs),
(563,40,o),
(560,40,o),
(557,28,cs),
(550,0,l),
(769,0,l),
(774,19,ls),
(775,24,o),
(777,29,o),
(777,34,cs),
(777,40,o),
(768,44,o),
(756,50,cs),
(741,58,o),
(731,64,o),
(731,82,cs),
(731,86,o),
(733,101,o),
(737,116,cs),
(868,638,ls),
(874,663,o),
(875,666,o),
(903,679,cs),
(927,690,o),
(930,690,o),
(933,702,cs),
(940,730,l)
);
}
);
width = 870;
}
);
unicode = 77;
}
{
glyphname = N;
layers = (
{
hints = (
{
horizontal = 1;
place = (-6,20);
type = Stem;
},
{
horizontal = 1;
place = (730,-20);
target = down;
type = TopGhost;
}
);
layerId = "59F106EB-9104-49C8-9C07-57E2EFBDDD8D";
shapes = (
{
closed = 1;
nodes = (
(600,730,l),
(595,711,ls),
(594,706,o),
(592,701,o),
(592,696,cs),
(592,690,o),
(603,682,o),
(612,675,cs),
(630,661,o),
(633,652,o),
(633,639,cs),
(633,633,o),
(631,617,o),
(627,602,cs),
(528,202,l),
(316,730,l),
(143,730,l),
(138,711,ls),
(137,706,o),
(135,701,o),
(135,696,cs),
(135,690,o),
(144,686,o),
(156,680,cs),
(171,672,o),
(180,666,o),
(180,648,cs),
(180,644,o),
(178,629,o),
(174,614,cs),
(49,112,ls),
(42,86,o),
(33,69,o),
(11,56,cs),
(-14,41,o),
(-20,39,o),
(-22,29,cs),
(-29,0,l),
(149,0,l),
(154,19,ls),
(155,24,o),
(157,29,o),
(157,34,cs),
(157,40,o),
(146,48,o),
(137,55,cs),
(119,69,o),
(116,78,o),
(116,91,cs),
(116,97,o),
(119,117,o),
(122,128,cs),
(244,620,l),
(498,-6,l),
(545,-6,l),
(700,618,ls),
(706,644,o),
(716,661,o),
(738,674,cs),
(763,689,o),
(769,691,o),
(771,701,cs),
(778,730,l)
);
}
);
width = 704;
}
);
unicode = 78;
}
{
glyphname = O;
layers = (
{
hints = (
{
horizontal = 1;
place = (-11,60);
type = Stem;
},
{
horizontal = 1;
place = (681,60);
type = Stem;
},
{
place = (53,113);
type = Stem;
},
{
place = (616,113);
type = Stem;
}
);
layerId = "59F106EB-9104-49C8-9C07-57E2EFBDDD8D";
shapes = (
{
closed = 1;
nodes = (
(724,612,o),
(617,741,o),
(447,741,cs),
(211,741,o),
(48,521,o),
(48,288,cs),
(48,113,o),
(161,-11,o),
(327,-11,cs),
(558,-11,o),
(724,207,o),
(724,442,cs)
);
},
{
closed = 1;
nodes = (
(607,267,o),
(499,47,o),
(330,47,cs),
(223,47,o),
(165,125,o),
(165,257,cs),
(165,448,o),
(266,683,o),
(444,683,cs),
(549,683,o),
(607,605,o),
(607,475,cs)
);
}
);
width = 730;
}
);
unicode = 79;
}
{
glyphname = P;
layers = (
{
hints = (
{
horizontal = 1;
place = (0,20);
type = Stem;
},
{
horizontal = 1;
place = (323,60);
type = Stem;
},
{
horizontal = 1;
place = (670,60);
type = Stem;
},
{
place = (507,123);
type = Stem;
}
);
layerId = "59F106EB-9104-49C8-9C07-57E2EFBDDD8D";
shapes = (
{
closed = 1;
nodes = (
(625,649,o),
(557,730,o),
(395,730,cs),
(143,730,l),
(138,711,ls),
(137,706,o),
(135,701,o),
(135,696,cs),
(135,690,o),
(144,686,o),
(156,680,cs),
(171,672,o),
(181,666,o),
(181,648,cs),
(181,644,o),
(179,630,o),
(175,614,cs),
(44,91,ls),
(38,67,o),
(37,64,o),
(9,51,cs),
(-15,40,o),
(-18,40,o),
(-21,28,cs),
(-28,0,l),
(194,0,l),
(199,19,ls),
(200,24,o),
(202,29,o),
(202,34,cs),
(202,40,o),
(193,44,o),
(181,50,cs),
(166,58,o),
(156,64,o),
(156,82,cs),
(156,86,o),
(158,100,o),
(162,116,cs),
(214,323,l),
(296,323,ls),
(529,323,o),
(625,440,o),
(625,559,cs)
);
},
{
closed = 1;
nodes = (
(504,459,o),
(444,383,o),
(309,383,cs),
(229,383,l),
(301,672,l),
(360,672,ls),
(457,672,o),
(504,625,o),
(504,559,cs)
);
}
);
width = 579;
}
);
unicode = 80;
}
{
glyphname = Q;
layers = (
{
hints = (
{
horizontal = 1;
place = (-173,87);
type = Stem;
},
{
horizontal = 1;
place = (681,60);
type = Stem;
},
{
place = (53,113);
type = Stem;
},
{
place = (616,113);
type = Stem;
}
);
layerId = "59F106EB-9104-49C8-9C07-57E2EFBDDD8D";
shapes = (
{
closed = 1;
nodes = (
(724,611,o),
(617,741,o),
(447,741,cs),
(211,741,o),
(48,520,o),
(48,287,cs),
(48,133,o),
(133,23,o),
(264,-6,c),
(294,-25,o),
(316,-43,o),
(363,-90,cs),
(407,-133,o),
(447,-173,o),
(523,-173,cs),
(596,-173,o),
(656,-139,o),
(683,-117,c),
(697,-64,l),
(668,-76,o),
(640,-86,o),
(614,-86,cs),
(565,-86,o),
(536,-78,o),
(490,-55,cs),
(456,-38,o),
(419,-18,o),
(391,-6,c),
(588,30,o),
(724,229,o),
(724,441,cs)
);
},
{
closed = 1;
nodes = (
(607,265,o),
(498,45,o),
(329,45,cs),
(222,45,o),
(165,124,o),
(165,255,cs),
(165,447,o),
(266,683,o),
(444,683,cs),
(549,683,o),
(607,604,o),
(607,474,cs)
);
}
);
width = 732;
}
);
unicode = 81;
}
{
glyphname = R;
layers = (
{
hints = (
{
horizontal = 1;
place = (0,20);
type = Stem;
},
{
horizontal = 1;
place = (335,60);
type = Stem;
},
{
horizontal = 1;
place = (670,60);
type = Stem;
},
{
place = (517,123);
type = Stem;
}
);
layerId = "59F106EB-9104-49C8-9C07-57E2EFBDDD8D";
shapes = (
{
closed = 1;
nodes = (
(635,656,o),
(566,730,o),
(411,730,cs),
(143,730,l),
(138,711,ls),
(137,706,o),
(135,701,o),
(135,696,cs),
(135,690,o),
(144,686,o),
(156,680,cs),
(171,672,o),
(181,666,o),
(181,648,cs),
(181,644,o),
(179,630,o),
(175,614,cs),
(44,91,ls),
(38,67,o),
(37,64,o),
(9,51,cs),
(-15,40,o),
(-18,40,o),
(-21,28,cs),
(-28,0,l),
(194,0,l),
(199,19,ls),
(200,24,o),
(202,29,o),
(202,34,cs),
(202,40,o),
(193,44,o),
(181,50,cs),
(166,58,o),
(156,64,o),
(156,82,cs),
(156,86,o),
(158,100,o),
(162,116,cs),
(216,335,l),
(245,335,ls),
(326,335,o),
(349,260,o),
(384,178,cs),
(459,0,l),
(610,0,l),
(615,19,ls),
(616,24,o),
(618,29,o),
(618,34,cs),
(618,41,o),
(599,47,o),
(581,55,cs),
(546,71,o),
(538,93,o),
(520,137,cs),
(460,285,o),
(436,328,o),
(400,349,c),
(560,378,o),
(635,466,o),
(635,565,cs)
);
},
{
closed = 1;
nodes = (
(510,454,o),
(444,394,o),
(314,394,cs),
(231,394,l),
(301,672,l),
(377,672,ls),
(460,672,o),
(510,635,o),
(510,564,cs)
);
}
);
width = 650;
}
);
unicode = 82;
}
{
glyphname = S;
layers = (
{
hints = (
{
horizontal = 1;
place = (-11,60);
type = Stem;
},
{
horizontal = 1;
place = (681,60);
type = Stem;
},
{
place = (111,104);
type = Stem;
},
{
place = (414,104);
type = Stem;
}
);
layerId = "59F106EB-9104-49C8-9C07-57E2EFBDDD8D";
shapes = (
{
closed = 1;
nodes = (
(529,710,ls),
(520,710,o),
(518,709,o),
(503,700,cs),
(494,695,o),
(489,698,o),
(481,703,cs),
(430,733,o),
(378,741,o),
(339,741,cs),
(198,741,o),
(106,643,o),
(106,539,cs),
(106,469,o),
(131,406,o),
(218,361,cs),
(251,344,o),
(278,332,o),
(316,312,cs),
(369,285,o),
(411,257,o),
(411,196,cs),
(411,108,o),
(344,47,o),
(249,47,cs),
(171,47,o),
(96,78,o),
(72,190,cs),
(68,211,o),
(62,215,o),
(50,215,cs),
(19,215,l),
(-32,12,l),
(2,12,ls),
(10,12,o),
(24,16,o),
(32,28,cs),
(36,34,o),
(42,38,o),
(49,38,cs),
(53,38,o),
(60,35,o),
(66,32,cs),
(88,22,o),
(158,-11,o),
(243,-11,cs),
(414,-11,o),
(513,116,o),
(513,230,cs),
(513,317,o),
(463,367,o),
(372,412,cs),
(334,431,o),
(302,446,o),
(270,465,cs),
(227,491,o),
(207,523,o),
(207,567,cs),
(207,634,o),
(261,683,o),
(334,683,cs),
(414,683,o),
(454,629,o),
(464,546,cs),
(465,536,o),
(469,528,o),
(483,528,cs),
(515,528,l),
(562,710,l)
);
}
);
width = 537;
}
);
unicode = 83;
}
{
glyphname = T;
layers = (
{
hints = (
{
horizontal = 1;
place = (0,20);
type = Stem;
},
{
horizontal = 1;
place = (670,60);
type = Stem;
}
);
layerId = "59F106EB-9104-49C8-9C07-57E2EFBDDD8D";
shapes = (
{
closed = 1;
nodes = (
(716,737,l),
(696,735,o),
(636,730,o),
(604,730,cs),
(218,730,ls),
(193,730,o),
(139,735,o),
(121,737,c),
(81,577,l),
(108,577,ls),
(126,577,o),
(138,588,o),
(145,599,cs),
(178,654,o),
(206,673,o),
(246,673,cs),
(346,673,l),
(200,91,ls),
(194,67,o),
(192,64,o),
(164,51,cs),
(140,40,o),
(137,40,o),
(134,28,cs),
(127,0,l),
(351,0,l),
(356,19,ls),
(357,24,o),
(359,30,o),
(359,35,cs),
(359,41,o),
(350,45,o),
(338,51,cs),
(323,59,o),
(312,64,o),
(312,82,cs),
(312,86,o),
(314,100,o),
(318,116,cs),
(459,673,l),
(564,673,ls),
(606,673,o),
(621,653,o),
(629,599,cs),
(631,587,o),
(638,577,o),
(657,577,cs),
(676,577,l)
);
}
);
width = 608;
}
);
unicode = 84;
}
{
glyphname = U;
layers = (
{
hints = (
{
horizontal = 1;
place = (-11,69);
type = Stem;
},
{
horizontal = 1;
place = (730,-20);
target = down;
type = TopGhost;
},
{
place = (75,113);
type = Stem;
}
);
layerId = "59F106EB-9104-49C8-9C07-57E2EFBDDD8D";
shapes = (
{
closed = 1;
nodes = (
(612,730,l),
(607,711,ls),
(606,706,o),
(604,701,o),
(604,696,cs),
(604,690,o),
(615,681,o),
(624,675,cs),
(643,662,o),
(645,652,o),
(645,639,cs),
(645,633,o),
(642,613,o),
(639,602,cs),
(555,269,ls),
(524,145,o),
(456,62,o),
(330,62,cs),
(239,62,o),
(184,113,o),
(184,193,cs),
(184,212,o),
(189,248,o),
(193,265,cs),
(287,638,ls),
(292,658,o),
(294,666,o),
(322,679,cs),
(346,690,o),
(349,690,o),
(352,702,cs),
(359,730,l),
(137,730,l),
(132,711,ls),
(131,706,o),
(129,701,o),
(129,696,cs),
(129,690,o),
(138,686,o),
(150,680,cs),
(165,672,o),
(175,666,o),
(175,648,cs),
(175,644,o),
(173,630,o),
(169,614,cs),
(80,262,ls),
(75,242,o),
(70,206,o),
(70,186,cs),
(70,71,o),
(148,-11,o),
(313,-11,cs),
(496,-11,o),
(591,118,o),
(626,259,cs),
(715,616,ls),
(721,640,o),
(731,661,o),
(753,674,cs),
(778,689,o),
(784,691,o),
(786,701,cs),
(793,730,l)
);
}
);
width = 718;
}
);
unicode = 85;
}
{
glyphname = V;
layers = (
{
hints = (
{
horizontal = 1;
place = (-8,20);
type = Stem;
},
{
horizontal = 1;
place = (730,-20);
target = down;
type = TopGhost;
}
);
layerId = "59F106EB-9104-49C8-9C07-57E2EFBDDD8D";
shapes = (
{
closed = 1;
nodes = (
(605,730,l),
(600,711,ls),
(599,706,o),
(597,701,o),
(597,696,cs),
(597,690,o),
(606,686,o),
(618,680,cs),
(633,672,o),
(640,668,o),
(640,658,cs),
(640,647,o),
(628,626,o),
(611,599,cs),
(339,166,l),
(270,619,ls),
(268,631,o),
(268,645,o),
(268,654,cs),
(268,663,o),
(274,669,o),
(295,679,cs),
(319,690,o),
(322,692,o),
(325,702,cs),
(332,730,l),
(104,730,l),
(99,711,ls),
(98,706,o),
(96,701,o),
(96,696,cs),
(96,690,o),
(105,686,o),
(117,680,cs),
(132,672,o),
(153,661,o),
(156,639,cs),
(255,6,ls),
(257,-5,o),
(264,-8,o),
(274,-8,cs),
(283,-8,ls),
(294,-8,o),
(300,-4,o),
(305,4,cs),
(709,622,ls),
(732,657,o),
(740,661,o),
(773,679,cs),
(795,691,o),
(799,692,o),
(802,702,cs),
(809,730,l)
);
}
);
width = 691;
}
);
unicode = 86;
}
{
glyphname = W;
layers = (
{
hints = (
{
horizontal = 1;
place = (-8,20);
type = Stem;
},
{
horizontal = 1;
place = (730,-20);
target = down;
type = TopGhost;
},
{
place = (573,85);
type = Stem;
}
);
layerId = "59F106EB-9104-49C8-9C07-57E2EFBDDD8D";
shapes = (
{
closed = 1;
nodes = (
(909,730,l),
(904,711,ls),
(903,706,o),
(901,701,o),
(901,696,cs),
(901,690,o),
(910,686,o),
(922,680,cs),
(937,672,o),
(944,668,o),
(944,658,cs),
(944,647,o),
(931,623,o),
(915,596,cs),
(672,177,l),
(634,616,ls),
(633,626,o),
(633,645,o),
(633,654,cs),
(633,663,o),
(642,669,o),
(663,679,cs),
(687,690,o),
(690,692,o),
(693,702,cs),
(700,730,l),
(474,730,l),
(469,711,ls),
(468,706,o),
(466,701,o),
(466,696,cs),
(466,690,o),
(475,686,o),
(487,680,cs),
(502,672,o),
(522,657,o),
(524,638,cs),
(535,554,l),
(316,180,l),
(271,617,ls),
(270,631,o),
(270,645,o),
(270,654,cs),
(270,663,o),
(276,669,o),
(297,679,cs),
(321,690,o),
(324,692,o),
(327,702,cs),
(334,730,l),
(106,730,l),
(101,711,ls),
(100,706,o),
(98,701,o),
(98,696,cs),
(98,690,o),
(107,686,o),
(119,680,cs),
(134,672,o),
(157,661,o),
(159,639,cs),
(230,6,ls),
(231,-3,o),
(238,-8,o),
(248,-8,cs),
(261,-8,ls),
(270,-8,o),
(277,-4,o),
(282,5,cs),
(546,458,l),
(583,7,ls),
(584,-2,o),
(590,-8,o),
(601,-8,cs),
(615,-8,ls),
(624,-8,o),
(633,-2,o),
(636,4,cs),
(1013,622,ls),
(1036,659,o),
(1044,661,o),
(1077,679,cs),
(1099,691,o),
(1102,692,o),
(1105,702,cs),
(1112,730,l)
);
}
);
width = 995;
}
);
unicode = 87;
}
{
glyphname = X;
layers = (
{
hints = (
{
horizontal = 1;
place = (0,20);
type = Stem;
},
{
horizontal = 1;
place = (730,-20);
target = down;
type = TopGhost;
}
);
layerId = "59F106EB-9104-49C8-9C07-57E2EFBDDD8D";
shapes = (
{
closed = 1;
nodes = (
(523,730,l),
(518,711,ls),
(517,706,o),
(515,700,o),
(515,695,cs),
(515,689,o),
(526,686,o),
(541,680,cs),
(554,675,o),
(560,668,o),
(560,660,cs),
(560,650,o),
(551,640,o),
(545,633,cs),
(376,443,l),
(306,615,ls),
(298,635,o),
(295,652,o),
(295,657,cs),
(295,663,o),
(295,672,o),
(316,679,cs),
(342,688,o),
(343,690,o),
(346,702,cs),
(353,730,l),
(128,730,l),
(123,711,ls),
(122,706,o),
(120,700,o),
(120,695,cs),
(120,689,o),
(129,685,o),
(141,679,cs),
(165,668,o),
(173,656,o),
(184,630,cs),
(291,371,l),
(57,116,ls),
(23,79,o),
(-5,61,o),
(-25,52,cs),
(-51,41,o),
(-53,40,o),
(-56,28,cs),
(-63,0,l),
(150,0,l),
(155,19,ls),
(156,24,o),
(158,30,o),
(158,35,cs),
(158,41,o),
(144,44,o),
(129,50,cs),
(116,55,o),
(110,62,o),
(110,70,cs),
(110,80,o),
(121,91,o),
(126,97,cs),
(316,311,l),
(396,115,ls),
(404,95,o),
(407,78,o),
(407,73,cs),
(407,67,o),
(407,58,o),
(386,51,cs),
(360,42,o),
(359,40,o),
(356,28,cs),
(349,0,l),
(574,0,l),
(579,19,ls),
(580,24,o),
(582,30,o),
(582,35,cs),
(582,41,o),
(573,45,o),
(561,51,cs),
(537,62,o),
(529,74,o),
(518,100,cs),
(401,383,l),
(613,614,ls),
(651,655,o),
(672,669,o),
(692,678,cs),
(718,689,o),
(720,690,o),
(723,702,cs),
(730,730,l)
);
}
);
width = 644;
}
);
unicode = 88;
}
{
glyphname = Y;
layers = (
{
hints = (
{
horizontal = 1;
place = (0,20);
type = Stem;
},
{
horizontal = 1;
place = (730,-20);
target = down;
type = TopGhost;
}
);
layerId = "59F106EB-9104-49C8-9C07-57E2EFBDDD8D";
shapes = (
{
closed = 1;
nodes = (
(538,730,l),
(533,711,ls),
(532,706,o),
(530,700,o),
(530,695,cs),
(530,689,o),
(541,686,o),
(556,680,cs),
(569,675,o),
(575,668,o),
(575,660,cs),
(575,650,o),
(560,630,o),
(552,621,cs),
(360,399,l),
(273,632,ls),
(272,636,o),
(267,653,o),
(267,658,cs),
(267,666,o),
(269,672,o),
(290,679,cs),
(316,688,o),
(317,690,o),
(320,702,cs),
(327,730,l),
(99,730,l),
(94,711,ls),
(93,706,o),
(91,700,o),
(91,695,cs),
(91,689,o),
(100,685,o),
(112,679,cs),
(136,668,o),
(144,656,o),
(152,637,cs),
(272,332,l),
(212,91,ls),
(206,67,o),
(204,64,o),
(176,51,cs),
(152,40,o),
(149,40,o),
(146,28,cs),
(139,0,l),
(363,0,l),
(368,19,ls),
(369,24,o),
(371,30,o),
(371,35,cs),
(371,41,o),
(362,45,o),
(350,51,cs),
(335,59,o),
(324,64,o),
(324,82,cs),
(324,86,o),
(326,101,o),
(330,116,cs),
(384,333,l),
(637,624,ls),
(667,658,o),
(687,669,o),
(707,678,cs),
(733,689,o),
(735,690,o),
(738,702,cs),
(745,730,l)
);
}
);
width = 625;
}
);
unicode = 89;
}
{
glyphname = Z;
layers = (
{
hints = (
{
horizontal = 1;
place = (0,60);
type = Stem;
},
{
horizontal = 1;
place = (670,60);
type = Stem;
}
);
layerId = "59F106EB-9104-49C8-9C07-57E2EFBDDD8D";
shapes = (
{
closed = 1;
nodes = (
(257,730,ls),
(233,730,o),
(185,736,o),
(165,739,c),
(123,577,l),
(150,577,ls),
(170,577,o),
(181,585,o),
(190,601,cs),
(217,649,o),
(246,672,o),
(283,672,cs),
(504,672,l),
(-11,62,ls),
(-26,44,o),
(-33,37,o),
(-37,24,cs),
(-44,0,l),
(397,0,ls),
(424,0,o),
(481,-6,o),
(502,-9,c),
(547,171,l),
(514,171,ls),
(496,171,o),
(493,163,o),
(484,150,cs),
(436,79,o),
(408,58,o),
(354,58,cs),
(119,58,l),
(634,669,ls),
(646,683,o),
(656,691,o),
(661,712,cs),
(665,730,l)
);
}
);
width = 592;
}
);
unicode = 90;
}
{
glyphname = bracketleft;
layers = (
{
hints = (
{
horizontal = 1;
place = (-190,50);
type = Stem;
},
{
horizontal = 1;
place = (680,50);
type = Stem;
}
);
layerId = "59F106EB-9104-49C8-9C07-57E2EFBDDD8D";
shapes = (
{
closed = 1;
nodes = (
(175,730,l),
(-55,-190,l),
(193,-190,l),
(207,-141,l),
(53,-141,l),
(257,681,l),
(410,681,l),
(423,730,l)
);
}
);
width = 332;
}
);
unicode = 91;
}
{
glyphname = backslash;
layers = (
{
hints = (
{
horizontal = 1;
place = (730,-20);
target = down;
type = TopGhost;
}
);
layerId = "59F106EB-9104-49C8-9C07-57E2EFBDDD8D";
shapes = (
{
closed = 1;
nodes = (
(177,730,l),
(105,730,l),
(336,-190,l),
(407,-190,l)
);
}
);
width = 439;
}
);
unicode = 92;
}
{
glyphname = bracketright;
layers = (
{
hints = (
{
horizontal = 1;
place = (-190,50);
type = Stem;
},
{
horizontal = 1;
place = (680,50);
type = Stem;
}
);
layerId = "59F106EB-9104-49C8-9C07-57E2EFBDDD8D";
shapes = (
{
closed = 1;
nodes = (
(134,730,l),
(120,681,l),
(274,681,l),
(70,-141,l),
(-83,-141,l),
(-96,-190,l),
(152,-190,l),
(382,730,l)
);
}
);
width = 332;
}
);
unicode = 93;
}
{
glyphname = asciicircum;
layers = (
{
hints = (
{
horizontal = 1;
place = (730,-20);
target = down;
type = TopGhost;
}
);
layerId = "59F106EB-9104-49C8-9C07-57E2EFBDDD8D";
shapes = (
{
closed = 1;
nodes = (
(433,730,l),
(361,730,l),
(161,314,l),
(243,314,l),
(397,643,l),
(551,314,l),
(633,314,l)
);
}
);
width = 745;
}
);
unicode = 94;
}
{
glyphname = underscore;
layers = (
{
hints = (
{
horizontal = 1;
place = (-103,50);
type = Stem;
}
);
layerId = "59F106EB-9104-49C8-9C07-57E2EFBDDD8D";
shapes = (
{
closed = 1;
nodes = (
(-67,-50,l),
(-82,-103,l),
(419,-103,l),
(434,-50,l)
);
}
);
width = 495;
}
);
unicode = 95;
}
{
glyphname = a;
layers = (
{
hints = (
{
horizontal = 1;
place = (-9,60);
type = Stem;
},
{
horizontal = 1;
place = (385,50);
type = Stem;
},
{
place = (20,104);
type = Stem;
}
);
layerId = "59F106EB-9104-49C8-9C07-57E2EFBDDD8D";
shapes = (
{
closed = 1;
nodes = (
(461,74,l),
(435,62,o),
(421,52,o),
(406,52,cs),
(388,52,o),
(381,62,o),
(381,73,cs),
(381,80,o),
(383,88,o),
(385,97,cs),
(469,421,ls),
(471,430,o),
(462,437,o),
(453,437,cs),
(448,437,o),
(440,436,o),
(434,431,cs),
(397,400,ls),
(393,396,o),
(387,398,o),
(383,401,cs),
(355,423,o),
(333,435,o),
(286,435,cs),
(138,435,o),
(15,306,o),
(15,149,cs),
(15,57,o),
(60,-8,o),
(157,-8,cs),
(208,-8,o),
(252,23,o),
(286,53,c),
(289,24,o),
(303,-9,o),
(356,-9,cs),
(405,-9,o),
(453,18,o),
(471,33,c)
);
},
{
closed = 1;
nodes = (
(286,98,l),
(254,71,o),
(231,55,o),
(196,55,cs),
(149,55,o),
(121,84,o),
(121,151,cs),
(121,258,o),
(170,382,o),
(285,382,cs),
(317,382,o),
(337,366,o),
(349,349,c)
);
}
);
width = 492;
}
);
unicode = 97;
}
{
glyphname = b;
layers = (
{
hints = (
{
horizontal = 1;
place = (-10,50);
type = Stem;
},
{
horizontal = 1;
place = (363,69);
type = Stem;
},
{
horizontal = 1;
place = (730,-20);
target = down;
type = TopGhost;
},
{
place = (45,95);
type = Stem;
},
{
place = (373,104);
type = Stem;
}
);
layerId = "59F106EB-9104-49C8-9C07-57E2EFBDDD8D";
shapes = (
{
closed = 1;
nodes = (
(472,384,o),
(412,432,o),
(327,432,cs),
(269,432,o),
(227,403,o),
(199,383,c),
(287,730,l),
(133,730,l),
(129,714,ls),
(128,709,o),
(126,702,o),
(126,699,cs),
(126,693,o),
(136,689,o),
(148,683,cs),
(163,675,o),
(167,672,o),
(167,656,cs),
(167,652,o),
(163,635,o),
(159,619,cs),
(53,193,ls),
(47,167,o),
(40,142,o),
(40,118,cs),
(40,70,o),
(78,-10,o),
(200,-10,cs),
(368,-10,o),
(472,137,o),
(472,280,cs)
);
},
{
closed = 1;
nodes = (
(366,170,o),
(317,42,o),
(203,42,cs),
(154,42,o),
(138,76,o),
(138,112,cs),
(138,122,o),
(142,142,o),
(145,155,cs),
(183,317,l),
(216,347,o),
(241,366,o),
(290,366,cs),
(335,366,o),
(366,345,o),
(366,277,cs)
);
}
);
width = 485;
}
);
unicode = 98;
}
{
glyphname = c;
layers = (
{
hints = (
{
horizontal = 1;
place = (-9,60);
type = Stem;
},
{
horizontal = 1;
place = (383,50);
type = Stem;
},
{
place = (25,104);
type = Stem;
},
{
place = (290,113);
type = Stem;
}
);
layerId = "59F106EB-9104-49C8-9C07-57E2EFBDDD8D";
shapes = (
{
closed = 1;
nodes = (
(398,385,o),
(361,433,o),
(263,433,cs),
(115,433,o),
(20,300,o),
(20,168,cs),
(20,58,o),
(95,-9,o),
(199,-9,cs),
(288,-9,o),
(344,46,o),
(378,89,c),
(350,127,l),
(311,88,o),
(275,54,o),
(217,54,cs),
(147,54,o),
(125,110,o),
(125,174,cs),
(125,272,o),
(166,383,o),
(249,383,cs),
(276,383,o),
(291,377,o),
(298,371,c),
(290,357,o),
(283,337,o),
(283,326,cs),
(283,293,o),
(308,277,o),
(339,277,cs),
(368,277,o),
(398,293,o),
(398,342,cs)
);
}
);
width = 394;
}
);
unicode = 99;
}
{
glyphname = d;
layers = (
{
hints = (
{
horizontal = 1;
place = (-9,60);
type = Stem;
},
{
horizontal = 1;
place = (383,50);
type = Stem;
},
{
horizontal = 1;
place = (730,-20);
target = down;
type = TopGhost;
},
{
place = (20,104);
type = Stem;
}
);
layerId = "59F106EB-9104-49C8-9C07-57E2EFBDDD8D";
shapes = (
{
closed = 1;
nodes = (
(397,730,l),
(393,714,ls),
(392,709,o),
(390,702,o),
(390,699,cs),
(390,693,o),
(403,689,o),
(415,683,cs),
(430,675,o),
(436,672,o),
(436,656,cs),
(436,652,o),
(432,634,o),
(428,618,cs),
(373,391,l),
(355,411,o),
(329,433,o),
(272,433,cs),
(138,433,o),
(15,309,o),
(15,150,cs),
(15,57,o),
(59,-8,o),
(159,-8,cs),
(211,-8,o),
(264,24,o),
(300,54,c),
(302,23,o),
(315,-9,o),
(368,-9,cs),
(417,-9,o),
(466,18,o),
(484,34,c),
(474,75,l),
(448,62,o),
(434,52,o),
(419,52,cs),
(401,52,o),
(395,62,o),
(395,74,cs),
(395,81,o),
(397,89,o),
(399,98,cs),
(556,730,l)
);
},
{
closed = 1;
nodes = (
(299,99,l),
(266,73,o),
(233,55,o),
(198,55,cs),
(151,55,o),
(121,84,o),
(121,151,cs),
(121,240,o),
(161,380,o),
(278,380,cs),
(319,380,o),
(342,362,o),
(357,333,c)
);
}
);
width = 502;
}
);
unicode = 100;
}
{
glyphname = e;
layers = (
{
hints = (
{
horizontal = 1;
place = (-9,60);
type = Stem;
},
{
horizontal = 1;
place = (190,43);
type = Stem;
},
{
horizontal = 1;
place = (384,50);
type = Stem;
},
{
place = (26,104);
type = Stem;
},
{
place = (318,95);
type = Stem;
}
);
layerId = "59F106EB-9104-49C8-9C07-57E2EFBDDD8D";
shapes = (
{
closed = 1;
nodes = (
(408,396,o),
(357,434,o),
(279,434,cs),
(127,434,o),
(21,304,o),
(21,166,cs),
(21,116,o),
(43,-9,o),
(195,-9,cs),
(319,-9,o),
(377,71,o),
(394,97,c),
(370,132,l),
(315,80,o),
(266,55,o),
(223,55,cs),
(171,55,o),
(122,78,o),
(122,172,cs),
(122,178,o),
(123,185,o),
(123,190,c),
(165,190,ls),
(235,190,o),
(408,206,o),
(408,335,cs)
);
},
{
closed = 1;
nodes = (
(311,251,o),
(218,238,o),
(127,233,c),
(147,337,o),
(202,384,o),
(261,384,cs),
(285,384,o),
(311,372,o),
(311,338,cs)
);
}
);
width = 410;
}
);
unicode = 101;
}
{
glyphname = f;
layers = (
{
hints = (
{
horizontal = 1;
place = (0,20);
type = Stem;
},
{
horizontal = 1;
place = (370,50);
type = Stem;
},
{
horizontal = 1;
place = (618,112);
type = Stem;
},
{
place = (332,113);
type = Stem;
}
);
layerId = "59F106EB-9104-49C8-9C07-57E2EFBDDD8D";
shapes = (
{
closed = 1;
nodes = (
(440,699,o),
(424,730,o),
(366,730,cs),
(244,730,o),
(161,595,o),
(127,444,cs),
(124,429,o),
(119,422,o),
(105,417,cs),
(76,408,o),
(68,402,o),
(65,391,cs),
(58,367,l),
(108,367,l),
(24,0,l),
(125,0,l),
(208,367,l),
(320,367,l),
(333,420,l),
(219,420,l),
(250,544,ls),
(276,648,o),
(308,666,o),
(328,674,c),
(329,627,o),
(360,614,o),
(382,614,cs),
(418,614,o),
(440,639,o),
(440,670,cs)
);
}
);
width = 283;
}
);
unicode = 102;
}
{
glyphname = g;
layers = (
{
hints = (
{
horizontal = 1;
place = (-198,50);
type = Stem;
},
{
horizontal = 1;
place = (-16,87);
type = Stem;
},
{
horizontal = 1;
place = (116,50);
type = Stem;
},
{
horizontal = 1;
place = (387,50);
type = Stem;
},
{
place = (-9,113);
type = Stem;
},
{
place = (321,95);
type = Stem;
}
);
layerId = "59F106EB-9104-49C8-9C07-57E2EFBDDD8D";
shapes = (
{
closed = 1;
nodes = (
(502,428,o),
(481,441,o),
(453,441,cs),
(421,441,o),
(390,419,o),
(368,397,c),
(341,419,o),
(303,437,o),
(251,437,cs),
(139,437,o),
(45,359,o),
(45,258,cs),
(45,216,o),
(63,179,o),
(99,152,c),
(-6,10,ls),
(-11,3,o),
(-19,-4,o),
(-19,-12,cs),
(-19,-23,o),
(-8,-27,o),
(3,-27,cs),
(12,-27,o),
(86,-14,o),
(164,-14,cs),
(246,-14,o),
(291,-28,o),
(291,-62,cs),
(291,-124,o),
(210,-147,o),
(147,-147,cs),
(124,-147,o),
(104,-141,o),
(97,-137,c),
(97,-132,o),
(98,-126,o),
(98,-122,cs),
(98,-92,o),
(79,-66,o),
(46,-66,cs),
(10,-66,o),
(-14,-89,o),
(-14,-122,cs),
(-14,-168,o),
(34,-198,o),
(139,-198,cs),
(270,-198,o),
(386,-137,o),
(386,-31,cs),
(386,25,o),
(343,67,o),
(199,67,cs),
(149,67,o),
(118,62,o),
(94,60,c),
(141,128,l),
(158,122,o),
(186,118,o),
(206,118,cs),
(333,118,o),
(411,203,o),
(411,297,cs),
(411,317,o),
(405,342,o),
(393,364,c),
(397,369,o),
(407,375,o),
(413,375,cs),
(419,375,o),
(425,371,o),
(428,367,c),
(435,362,o),
(443,355,o),
(459,355,cs),
(477,355,o),
(502,371,o),
(502,398,cs)
);
},
{
closed = 1;
nodes = (
(315,240,o),
(279,166,o),
(219,166,cs),
(171,166,o),
(144,198,o),
(144,252,cs),
(144,316,o),
(169,389,o),
(242,389,cs),
(293,389,o),
(315,355,o),
(315,309,cs)
);
}
);
width = 461;
}
);
unicode = 103;
}
{
glyphname = h;
layers = (
{
hints = (
{
horizontal = 1;
place = (-9,60);
type = Stem;
},
{
horizontal = 1;
place = (372,60);
type = Stem;
},
{
horizontal = 1;
place = (730,-20);
target = down;
type = TopGhost;
},
{
place = (303,104);
type = Stem;
}
);
layerId = "59F106EB-9104-49C8-9C07-57E2EFBDDD8D";
shapes = (
{
closed = 1;
nodes = (
(481,75,l),
(455,62,o),
(441,52,o),
(426,52,cs),
(408,52,o),
(402,64,o),
(402,76,cs),
(402,83,o),
(404,92,o),
(406,99,cs),
(454,284,ls),
(458,300,o),
(460,315,o),
(460,329,cs),
(460,393,o),
(431,432,o),
(351,432,cs),
(292,432,o),
(242,400,o),
(204,370,c),
(296,730,l),
(141,730,l),
(137,714,ls),
(136,709,o),
(134,702,o),
(134,699,cs),
(134,693,o),
(144,689,o),
(156,683,cs),
(171,675,o),
(175,672,o),
(175,656,cs),
(175,652,o),
(171,635,o),
(167,619,cs),
(13,0,l),
(113,0,l),
(190,306,l),
(223,337,o),
(269,368,o),
(308,368,cs),
(344,368,o),
(358,351,o),
(358,316,cs),
(358,307,o),
(357,297,o),
(354,286,cs),
(306,101,ls),
(302,84,o),
(299,68,o),
(299,55,cs),
(299,21,o),
(317,-9,o),
(376,-9,cs),
(425,-9,o),
(473,18,o),
(491,34,c)
);
}
);
width = 509;
}
);
unicode = 104;
}
{
glyphname = i;
layers = (
{
hints = (
{
horizontal = 1;
place = (-9,60);
type = Stem;
},
{
horizontal = 1;
place = (559,123);
type = Stem;
},
{
place = (50,104);
type = Stem;
},
{
place = (175,123);
type = Stem;
}
);
layerId = "59F106EB-9104-49C8-9C07-57E2EFBDDD8D";
shapes = (
{
closed = 1;
nodes = (
(293,653,o),
(267,682,o),
(231,682,cs),
(196,682,o),
(168,653,o),
(168,618,cs),
(168,584,o),
(195,555,o),
(230,555,cs),
(266,555,o),
(293,584,o),
(293,618,cs)
);
},
{
closed = 1;
nodes = (
(227,74,l),
(201,62,o),
(187,52,o),
(172,52,cs),
(154,52,o),
(148,64,o),
(148,75,cs),
(148,82,o),
(150,90,o),
(152,98,cs),
(235,429,l),
(196,429,l),
(149,411,o),
(106,399,o),
(60,399,c),
(54,376,ls),
(53,372,o),
(52,367,o),
(52,364,cs),
(52,356,o),
(65,353,o),
(78,352,cs),
(98,350,o),
(108,342,o),
(108,329,cs),
(108,324,o),
(106,314,o),
(104,306,cs),
(52,100,ls),
(48,83,o),
(45,68,o),
(45,55,cs),
(45,21,o),
(63,-9,o),
(122,-9,cs),
(171,-9,o),
(219,18,o),
(237,33,c)
);
}
);
width = 258;
}
);
unicode = 105;
}
{
glyphname = j;
layers = (
{
hints = (
{
horizontal = 1;
place = (-198,112);
type = Stem;
},
{
horizontal = 1;
place = (559,123);
type = Stem;
},
{
place = (-144,113);
type = Stem;
},
{
place = (164,123);
type = Stem;
}
);
layerId = "59F106EB-9104-49C8-9C07-57E2EFBDDD8D";
shapes = (
{
closed = 1;
nodes = (
(282,653,o),
(256,682,o),
(220,682,cs),
(185,682,o),
(157,653,o),
(157,618,cs),
(157,584,o),
(184,555,o),
(219,555,cs),
(255,555,o),
(282,584,o),
(282,618,cs)
);
},
{
closed = 1;
nodes = (
(199,429,l),
(152,410,o),
(108,399,o),
(62,399,c),
(56,376,ls),
(55,371,o),
(54,366,o),
(54,363,cs),
(54,355,o),
(68,352,o),
(81,351,cs),
(101,349,o),
(111,342,o),
(111,328,cs),
(111,323,o),
(109,313,o),
(107,305,cs),
(28,-38,ls),
(8,-127,o),
(-20,-144,o),
(-37,-149,c),
(-40,-101,o),
(-68,-85,o),
(-90,-85,cs),
(-126,-85,o),
(-149,-106,o),
(-149,-138,cs),
(-149,-167,o),
(-127,-198,o),
(-74,-198,cs),
(42,-198,o),
(114,-99,o),
(148,48,cs),
(237,429,l)
);
}
);
width = 247;
}
);
unicode = 106;
}
{
glyphname = k;
layers = (
{
hints = (
{
horizontal = 1;
place = (-9,60);
type = Stem;
},
{
horizontal = 1;
place = (372,60);
type = Stem;
},
{
horizontal = 1;
place = (730,-20);
target = down;
type = TopGhost;
},
{
place = (359,104);
type = Stem;
}
);
layerId = "59F106EB-9104-49C8-9C07-57E2EFBDDD8D";
shapes = (
{
closed = 1;
nodes = (
(456,75,l),
(430,62,o),
(418,54,o),
(403,54,cs),
(381,54,o),
(361,93,o),
(353,114,cs),
(342,143,o),
(335,170,o),
(328,202,c),
(377,226,o),
(458,262,o),
(458,344,cs),
(458,395,o),
(424,432,o),
(361,432,cs),
(308,432,o),
(270,418,o),
(205,373,c),
(296,730,l),
(141,730,l),
(137,714,ls),
(136,709,o),
(134,702,o),
(134,699,cs),
(134,693,o),
(144,689,o),
(156,683,cs),
(171,675,o),
(175,672,o),
(175,656,cs),
(175,652,o),
(171,635,o),
(167,619,cs),
(13,0,l),
(113,0,l),
(147,142,l),
(181,148,o),
(206,153,o),
(238,163,c),
(265,28,o),
(305,-9,o),
(357,-9,cs),
(396,-9,o),
(448,18,o),
(466,34,c)
);
},
{
closed = 1;
nodes = (
(354,254,o),
(242,204,o),
(158,190,c),
(190,308,l),
(243,357,o),
(281,370,o),
(303,370,cs),
(341,370,o),
(354,353,o),
(354,319,cs)
);
}
);
width = 488;
}
);
unicode = 107;
}
{
glyphname = l;
layers = (
{
hints = (
{
horizontal = 1;
place = (-9,60);
type = Stem;
},
{
horizontal = 1;
place = (730,-20);
target = down;
type = TopGhost;
},
{
place = (38,104);
type = Stem;
}
);
layerId = "59F106EB-9104-49C8-9C07-57E2EFBDDD8D";
shapes = (
{
closed = 1;
nodes = (
(143,730,l),
(139,714,ls),
(138,709,o),
(136,702,o),
(136,699,cs),
(136,693,o),
(146,689,o),
(158,683,cs),
(173,675,o),
(177,672,o),
(177,656,cs),
(177,652,o),
(173,634,o),
(169,618,cs),
(40,101,ls),
(36,84,o),
(33,68,o),
(33,55,cs),
(33,21,o),
(51,-9,o),
(110,-9,cs),
(159,-9,o),
(209,18,o),
(227,34,c),
(217,75,l),
(191,62,o),
(175,52,o),
(160,52,cs),
(142,52,o),
(136,64,o),
(136,76,cs),
(136,83,o),
(138,91,o),
(140,99,cs),
(297,730,l)
);
}
);
width = 245;
}
);
unicode = 108;
}
{
glyphname = m;
layers = (
{
hints = (
{
horizontal = 1;
place = (-9,60);
type = Stem;
},
{
horizontal = 1;
place = (372,60);
type = Stem;
},
{
place = (564,104);
type = Stem;
}
);
layerId = "59F106EB-9104-49C8-9C07-57E2EFBDDD8D";
shapes = (
{
closed = 1;
nodes = (
(742,74,l),
(716,62,o),
(702,52,o),
(687,52,cs),
(669,52,o),
(663,64,o),
(663,75,cs),
(663,82,o),
(665,91,o),
(667,98,cs),
(716,286,ls),
(720,300,o),
(722,315,o),
(722,328,cs),
(722,391,o),
(678,432,o),
(598,432,cs),
(540,432,o),
(505,404,o),
(454,364,c),
(439,405,o),
(405,432,o),
(345,432,cs),
(283,432,o),
(242,396,o),
(208,367,c),
(223,429,l),
(192,429,l),
(145,411,o),
(105,399,o),
(59,399,c),
(53,377,ls),
(52,372,o),
(51,367,o),
(51,364,cs),
(51,356,o),
(64,353,o),
(77,352,cs),
(97,350,o),
(107,342,o),
(107,329,cs),
(107,324,o),
(105,314,o),
(103,306,cs),
(27,0,l),
(127,0,l),
(203,309,l),
(229,336,o),
(267,369,o),
(300,369,cs),
(340,369,o),
(361,350,o),
(361,317,cs),
(361,308,o),
(359,296,o),
(357,288,cs),
(286,0,l),
(386,0,l),
(465,317,l),
(490,342,o),
(526,369,o),
(558,369,cs),
(600,369,o),
(620,348,o),
(620,314,cs),
(620,305,o),
(618,297,o),
(616,288,cs),
(567,100,ls),
(563,83,o),
(560,68,o),
(560,55,cs),
(560,21,o),
(578,-9,o),
(637,-9,cs),
(686,-9,o),
(734,18,o),
(752,33,c)
);
}
);
width = 770;
}
);
unicode = 109;
}
{
glyphname = n;
layers = (
{
hints = (
{
horizontal = 1;
place = (-9,60);
type = Stem;
},
{
horizontal = 1;
place = (372,60);
type = Stem;
},
{
place = (317,104);
type = Stem;
}
);
layerId = "59F106EB-9104-49C8-9C07-57E2EFBDDD8D";
shapes = (
{
closed = 1;
nodes = (
(495,74,l),
(469,62,o),
(455,52,o),
(440,52,cs),
(422,52,o),
(416,64,o),
(416,75,cs),
(416,82,o),
(418,91,o),
(420,98,cs),
(469,286,ls),
(473,301,o),
(475,316,o),
(475,330,cs),
(475,393,o),
(436,432,o),
(356,432,cs),
(295,432,o),
(245,396,o),
(207,366,c),
(222,429,l),
(192,429,l),
(145,411,o),
(105,399,o),
(59,399,c),
(53,377,ls),
(52,372,o),
(51,367,o),
(51,364,cs),
(51,356,o),
(64,353,o),
(77,352,cs),
(97,350,o),
(107,342,o),
(107,329,cs),
(107,324,o),
(105,314,o),
(103,306,cs),
(27,0,l),
(127,0,l),
(203,307,l),
(231,336,o),
(271,369,o),
(313,369,cs),
(349,369,o),
(373,353,o),
(373,317,cs),
(373,308,o),
(372,298,o),
(369,288,cs),
(320,100,ls),
(316,83,o),
(313,68,o),
(313,55,cs),
(313,21,o),
(331,-9,o),
(390,-9,cs),
(439,-9,o),
(487,18,o),
(505,33,c)
);
}
);
width = 523;
}
);
unicode = 110;
}
{
glyphname = o;
layers = (
{
hints = (
{
horizontal = 1;
place = (-10,50);
type = Stem;
},
{
horizontal = 1;
place = (386,50);
type = Stem;
},
{
place = (25,104);
type = Stem;
},
{
place = (350,104);
type = Stem;
}
);
layerId = "59F106EB-9104-49C8-9C07-57E2EFBDDD8D";
shapes = (
{
closed = 1;
nodes = (
(449,357,o),
(389,436,o),
(273,436,cs),
(117,436,o),
(20,306,o),
(20,174,cs),
(20,68,o),
(82,-10,o),
(199,-10,cs),
(343,-10,o),
(449,110,o),
(449,251,cs)
);
},
{
closed = 1;
nodes = (
(345,155,o),
(296,41,o),
(204,41,cs),
(144,41,o),
(124,85,o),
(124,158,cs),
(124,264,o),
(169,386,o),
(266,386,cs),
(325,386,o),
(345,342,o),
(345,271,cs)
);
}
);
width = 468;
}
);
unicode = 111;
}
{
glyphname = p;
layers = (
{
hints = (
{
horizontal = 1;
place = (-9,50);
type = Stem;
},
{
horizontal = 1;
place = (372,60);
type = Stem;
},
{
place = (384,104);
type = Stem;
}
);
layerId = "59F106EB-9104-49C8-9C07-57E2EFBDDD8D";
shapes = (
{
closed = 1;
nodes = (
(483,375,o),
(433,432,o),
(344,432,cs),
(291,432,o),
(235,395,o),
(204,369,c),
(218,429,l),
(188,429,l),
(141,410,o),
(101,399,o),
(55,399,c),
(49,376,ls),
(48,371,o),
(47,366,o),
(47,363,cs),
(47,355,o),
(60,352,o),
(73,351,cs),
(93,349,o),
(103,342,o),
(103,328,cs),
(103,323,o),
(101,313,o),
(99,305,cs),
(-25,-190,l),
(76,-190,l),
(129,30,l),
(148,12,o),
(174,-9,o),
(225,-9,cs),
(381,-9,o),
(483,143,o),
(483,281,cs)
);
},
{
closed = 1;
nodes = (
(377,168,o),
(322,43,o),
(224,43,cs),
(182,43,o),
(160,63,o),
(144,85,c),
(201,315,l),
(223,338,o),
(261,371,o),
(307,371,cs),
(353,371,o),
(377,339,o),
(377,280,cs)
);
}
);
width = 496;
}
);
unicode = 112;
}
{
glyphname = q;
layers = (
{
hints = (
{
horizontal = 1;
place = (-4,60);
type = Stem;
},
{
horizontal = 1;
place = (385,50);
type = Stem;
},
{
place = (20,104);
type = Stem;
}
);
layerId = "59F106EB-9104-49C8-9C07-57E2EFBDDD8D";
shapes = (
{
closed = 1;
nodes = (
(472,420,l),
(473,429,o),
(466,437,o),
(457,437,cs),
(452,437,o),
(444,436,o),
(438,431,cs),
(400,399,ls),
(396,395,o),
(390,397,o),
(386,400,cs),
(358,421,o),
(335,435,o),
(288,435,cs),
(141,435,o),
(15,302,o),
(15,155,cs),
(15,63,o),
(59,-4,o),
(160,-4,cs),
(208,-4,o),
(249,25,o),
(279,45,c),
(219,-190,l),
(320,-190,l)
);
},
{
closed = 1;
nodes = (
(292,100,l),
(263,76,o),
(232,60,o),
(197,60,cs),
(153,60,o),
(121,86,o),
(121,155,cs),
(121,270,o),
(172,382,o),
(287,382,cs),
(321,382,o),
(343,367,o),
(354,352,c)
);
}
);
width = 486;
}
);
unicode = 113;
}
{
glyphname = r;
layers = (
{
hints = (
{
horizontal = 1;
place = (0,20);
type = Stem;
},
{
horizontal = 1;
place = (309,123);
type = Stem;
},
{
place = (105,95);
type = Stem;
}
);
layerId = "59F106EB-9104-49C8-9C07-57E2EFBDDD8D";
shapes = (
{
closed = 1;
nodes = (
(383,404,o),
(365,432,o),
(320,432,cs),
(280,432,o),
(239,405,o),
(192,325,c),
(188,325,l),
(191,341,o),
(195,366,o),
(195,387,cs),
(195,400,o),
(195,414,o),
(192,429,c),
(162,429,l),
(133,413,o),
(99,399,o),
(53,399,c),
(47,376,ls),
(46,372,o),
(45,367,o),
(45,364,cs),
(45,356,o),
(57,353,o),
(70,352,cs),
(90,350,o),
(102,341,o),
(102,327,cs),
(102,317,o),
(101,296,o),
(96,276,cs),
(28,0,l),
(128,0,l),
(181,219,ls),
(195,277,o),
(240,346,o),
(275,356,c),
(282,331,o),
(300,314,o),
(324,314,cs),
(362,314,o),
(383,344,o),
(383,375,cs)
);
}
);
width = 349;
}
);
unicode = 114;
}
{
glyphname = s;
layers = (
{
hints = (
{
horizontal = 1;
place = (-9,50);
type = Stem;
},
{
horizontal = 1;
place = (384,50);
type = Stem;
},
{
place = (4,113);
type = Stem;
},
{
place = (255,104);
type = Stem;
}
);
layerId = "59F106EB-9104-49C8-9C07-57E2EFBDDD8D";
shapes = (
{
closed = 1;
nodes = (
(354,392,o),
(317,434,o),
(226,434,cs),
(138,434,o),
(58,376,o),
(58,299,cs),
(58,252,o),
(78,215,o),
(150,184,cs),
(207,159,o),
(248,143,o),
(248,106,cs),
(248,71,o),
(213,39,o),
(167,39,cs),
(140,39,o),
(112,48,o),
(95,61,c),
(100,69,o),
(109,83,o),
(109,98,cs),
(109,124,o),
(94,146,o),
(57,146,cs),
(20,146,o),
(-1,117,o),
(-1,87,cs),
(-1,41,o),
(54,-9,o),
(153,-9,cs),
(277,-9,o),
(337,69,o),
(337,133,cs),
(337,181,o),
(314,214,o),
(241,247,cs),
(175,277,o),
(146,293,o),
(146,325,cs),
(146,361,o),
(180,386,o),
(215,386,cs),
(238,386,o),
(248,382,o),
(254,380,c),
(251,370,o),
(248,357,o),
(248,348,cs),
(248,322,o),
(268,300,o),
(297,300,cs),
(327,300,o),
(354,321,o),
(354,358,cs)
);
}
);
width = 368;
}
);
unicode = 115;
}
{
glyphname = t;
layers = (
{
hints = (
{
horizontal = 1;
place = (-9,60);
type = Stem;
},
{
horizontal = 1;
place = (370,50);
type = Stem;
},
{
place = (43,104);
type = Stem;
}
);
layerId = "59F106EB-9104-49C8-9C07-57E2EFBDDD8D";
shapes = (
{
closed = 1;
nodes = (
(221,420,l),
(259,569,l),
(175,558,ls),
(167,557,o),
(160,552,o),
(157,540,cs),
(132,443,ls),
(128,428,o),
(121,424,o),
(105,418,cs),
(74,408,o),
(67,406,o),
(64,395,cs),
(56,367,l),
(108,367,l),
(44,102,ls),
(40,87,o),
(38,70,o),
(38,59,cs),
(38,19,o),
(59,-9,o),
(123,-9,cs),
(172,-9,o),
(227,17,o),
(245,32,c),
(235,75,l),
(209,62,o),
(186,53,o),
(173,53,cs),
(151,53,o),
(141,63,o),
(141,77,cs),
(141,81,o),
(144,99,o),
(146,109,cs),
(208,367,l),
(312,367,l),
(325,420,l)
);
}
);
width = 292;
}
);
unicode = 116;
}
{
glyphname = u;
layers = (
{
hints = (
{
horizontal = 1;
place = (-9,60);
type = Stem;
},
{
horizontal = 1;
place = (429,-20);
target = down;
type = TopGhost;
},
{
place = (53,104);
type = Stem;
}
);
layerId = "59F106EB-9104-49C8-9C07-57E2EFBDDD8D";
shapes = (
{
closed = 1;
nodes = (
(487,74,l),
(461,62,o),
(447,52,o),
(432,52,cs),
(414,52,o),
(408,62,o),
(408,73,cs),
(408,80,o),
(409,89,o),
(411,97,cs),
(495,429,l),
(457,429,l),
(410,411,o),
(367,399,o),
(321,399,c),
(315,376,ls),
(314,372,o),
(313,367,o),
(313,364,cs),
(313,356,o),
(326,353,o),
(339,352,cs),
(359,350,o),
(369,342,o),
(369,329,cs),
(369,324,o),
(367,313,o),
(365,304,cs),
(316,110,l),
(287,80,o),
(244,55,o),
(204,55,cs),
(166,55,o),
(149,71,o),
(149,110,cs),
(149,117,o),
(151,133,o),
(154,144,cs),
(228,429,l),
(188,429,l),
(141,411,o),
(98,399,o),
(52,399,c),
(46,376,ls),
(45,372,o),
(44,367,o),
(44,364,cs),
(44,356,o),
(57,353,o),
(70,352,cs),
(90,350,o),
(100,342,o),
(100,329,cs),
(100,324,o),
(98,314,o),
(96,306,cs),
(57,156,ls),
(53,139,o),
(48,115,o),
(48,101,cs),
(48,36,o),
(78,-9,o),
(157,-9,cs),
(225,-9,o),
(273,22,o),
(312,52,c),
(315,21,o),
(329,-9,o),
(382,-9,cs),
(431,-9,o),
(479,18,o),
(497,33,c)
);
}
);
width = 517;
}
);
unicode = 117;
}
{
glyphname = v;
layers = (
{
hints = (
{
horizontal = 1;
place = (-10,69);
type = Stem;
},
{
horizontal = 1;
place = (460,-20);
target = down;
type = TopGhost;
},
{
place = (54,104);
type = Stem;
},
{
place = (388,65);
type = Stem;
}
);
layerId = "59F106EB-9104-49C8-9C07-57E2EFBDDD8D";
shapes = (
{
closed = 1;
nodes = (
(448,386,o),
(438,460,o),
(371,460,cs),
(340,460,o),
(314,440,o),
(314,405,cs),
(314,372,o),
(328,353,o),
(383,342,c),
(381,284,o),
(376,239,o),
(346,174,cs),
(320,117,o),
(265,56,o),
(209,56,cs),
(164,56,o),
(151,83,o),
(151,116,cs),
(151,125,o),
(155,155,o),
(158,168,cs),
(228,429,l),
(186,429,l),
(139,410,o),
(97,399,o),
(51,399,c),
(45,376,ls),
(44,371,o),
(43,366,o),
(43,363,cs),
(43,355,o),
(56,353,o),
(69,352,cs),
(89,350,o),
(99,343,o),
(99,329,cs),
(99,324,o),
(97,315,o),
(95,307,cs),
(57,164,ls),
(53,147,o),
(49,122,o),
(49,107,cs),
(49,29,o),
(117,-10,o),
(190,-10,cs),
(350,-10,o),
(448,184,o),
(448,332,cs)
);
}
);
width = 463;
}
);
unicode = 118;
}
{
glyphname = w;
layers = (
{
hints = (
{
horizontal = 1;
place = (-9,60);
type = Stem;
},
{
horizontal = 1;
place = (460,-20);
target = down;
type = TopGhost;
},
{
place = (53,104);
type = Stem;
},
{
place = (634,65);
type = Stem;
}
);
layerId = "59F106EB-9104-49C8-9C07-57E2EFBDDD8D";
shapes = (
{
closed = 1;
nodes = (
(694,386,o),
(684,460,o),
(617,460,cs),
(586,460,o),
(560,440,o),
(560,405,cs),
(560,372,o),
(575,353,o),
(630,342,c),
(628,284,o),
(624,240,o),
(594,175,cs),
(566,113,o),
(515,56,o),
(459,56,cs),
(414,56,o),
(402,83,o),
(402,116,cs),
(402,125,o),
(405,150,o),
(409,166,cs),
(475,423,l),
(375,423,l),
(295,109,l),
(269,83,o),
(236,54,o),
(203,54,cs),
(160,54,o),
(148,79,o),
(148,114,cs),
(148,121,o),
(151,141,o),
(154,152,cs),
(227,429,l),
(188,429,l),
(141,410,o),
(97,400,o),
(51,400,c),
(45,377,ls),
(44,372,o),
(43,367,o),
(43,364,cs),
(43,356,o),
(56,354,o),
(69,353,cs),
(89,351,o),
(99,343,o),
(99,329,cs),
(99,324,o),
(97,315,o),
(95,307,cs),
(57,164,ls),
(52,147,o),
(48,123,o),
(48,109,cs),
(48,44,o),
(83,-9,o),
(165,-9,cs),
(231,-9,o),
(275,28,o),
(313,63,c),
(334,15,o),
(385,-9,o),
(440,-9,cs),
(600,-9,o),
(694,197,o),
(694,332,cs)
);
}
);
width = 711;
}
);
unicode = 119;
}
{
glyphname = x;
layers = (
{
hints = (
{
horizontal = 1;
place = (-9,60);
type = Stem;
},
{
horizontal = 1;
place = (371,60);
type = Stem;
}
);
layerId = "59F106EB-9104-49C8-9C07-57E2EFBDDD8D";
shapes = (
{
closed = 1;
nodes = (
(460,415,o),
(437,431,o),
(406,431,cs),
(356,431,o),
(304,360,o),
(251,287,c),
(226,393,o),
(198,431,o),
(149,431,cs),
(106,431,o),
(51,402,o),
(34,387,c),
(44,346,l),
(69,358,o),
(83,368,o),
(98,368,cs),
(123,368,o),
(139,337,o),
(149,310,cs),
(159,284,o),
(167,250,o),
(178,207,c),
(132,140,o),
(114,117,o),
(75,79,c),
(62,97,o),
(46,105,o),
(28,105,cs),
(-11,105,o),
(-28,75,o),
(-28,54,cs),
(-28,24,o),
(-10,-7,o),
(31,-7,cs),
(70,-7,o),
(119,36,o),
(192,148,c),
(218,28,o),
(250,-9,o),
(299,-9,cs),
(344,-9,o),
(394,18,o),
(411,33,c),
(402,74,l),
(377,62,o),
(363,54,o),
(348,54,cs),
(323,54,o),
(308,86,o),
(298,113,cs),
(287,141,o),
(274,190,o),
(265,229,c),
(318,300,o),
(331,317,o),
(363,347,c),
(378,330,o),
(391,325,o),
(408,325,cs),
(431,325,o),
(460,344,o),
(460,379,cs)
);
}
);
width = 431;
}
);
unicode = 120;
}
{
glyphname = y;
layers = (
{
hints = (
{
horizontal = 1;
place = (-195,123);
type = Stem;
},
{
horizontal = 1;
place = (363,69);
type = Stem;
},
{
place = (335,123);
type = Stem;
}
);
layerId = "59F106EB-9104-49C8-9C07-57E2EFBDDD8D";
shapes = (
{
closed = 1;
nodes = (
(453,405,o),
(432,432,o),
(394,432,cs),
(355,432,o),
(333,401,o),
(333,376,cs),
(333,349,o),
(350,334,o),
(371,322,c),
(361,294,o),
(358,285,o),
(346,261,cs),
(322,212,o),
(292,155,o),
(253,97,c),
(245,151,o),
(236,224,o),
(220,289,cs),
(197,382,o),
(173,432,o),
(109,432,cs),
(70,432,o),
(17,405,o),
(-3,388,c),
(6,346,l),
(32,357,o),
(47,366,o),
(62,366,cs),
(88,366,o),
(101,335,o),
(109,310,cs),
(124,267,o),
(157,129,o),
(178,-4,c),
(150,-39,o),
(82,-117,o),
(28,-135,c),
(23,-85,o),
(-4,-68,o),
(-32,-68,cs),
(-68,-68,o),
(-89,-97,o),
(-89,-123,cs),
(-89,-164,o),
(-58,-195,o),
(-5,-195,cs),
(99,-195,o),
(194,-66,o),
(262,28,cs),
(357,158,o),
(453,312,o),
(453,373,cs)
);
}
);
width = 437;
}
);
unicode = 121;
}
{
glyphname = z;
layers = (
{
hints = (
{
horizontal = 1;
place = (-9,60);
type = Stem;
},
{
horizontal = 1;
place = (336,77);
type = Stem;
},
{
horizontal = 1;
place = (435,-20);
target = down;
type = TopGhost;
},
{
place = (289,104);
type = Stem;
}
);
layerId = "59F106EB-9104-49C8-9C07-57E2EFBDDD8D";
shapes = (
{
closed = 1;
nodes = (
(408,435,l),
(382,424,o),
(361,413,o),
(297,413,cs),
(219,413,o),
(230,429,o),
(167,429,cs),
(69,429,o),
(31,329,o),
(31,317,c),
(62,297,l),
(78,318,o),
(96,342,o),
(131,342,cs),
(168,342,o),
(189,334,o),
(219,334,cs),
(240,334,o),
(270,340,o),
(290,345,c),
(-31,31,l),
(-16,-3,l),
(39,8,o),
(63,14,o),
(96,14,cs),
(168,14,o),
(185,-9,o),
(248,-9,cs),
(316,-9,o),
(388,32,o),
(388,122,cs),
(388,173,o),
(355,184,o),
(336,184,cs),
(314,184,o),
(287,168,o),
(287,140,cs),
(287,98,o),
(327,103,o),
(327,73,cs),
(327,55,o),
(314,51,o),
(306,51,cs),
(265,51,o),
(239,94,o),
(165,94,cs),
(134,94,o),
(112,87,o),
(98,84,c),
(423,401,l)
);
}
);
width = 401;
}
);
unicode = 122;
}
{
glyphname = braceleft;
layers = (
{
hints = (
{
horizontal = 1;
place = (733,-20);
target = down;
type = TopGhost;
},
{
place = (52,95);
type = Stem;
}
);
layerId = "59F106EB-9104-49C8-9C07-57E2EFBDDD8D";
shapes = (
{
closed = 1;
nodes = (
(462,733,l),
(321,733,o),
(195,654,o),
(174,539,cs),
(166,498,o),
(166,457,o),
(159,420,cs),
(145,338,o),
(103,308,o),
(27,295,c),
(19,260,l),
(72,248,o),
(87,218,o),
(87,175,cs),
(87,160,o),
(85,145,o),
(82,129,cs),
(75,91,o),
(59,50,o),
(51,9,cs),
(48,-6,o),
(47,-22,o),
(47,-36,cs),
(47,-130,o),
(107,-197,o),
(228,-197,c),
(238,-160,l),
(162,-138,o),
(139,-116,o),
(139,-63,cs),
(139,-47,o),
(142,-32,o),
(145,-12,cs),
(153,35,o),
(164,68,o),
(170,102,cs),
(172,116,o),
(173,128,o),
(173,140,cs),
(173,201,o),
(144,248,o),
(100,272,c),
(168,300,o),
(245,349,o),
(261,442,cs),
(267,475,o),
(268,510,o),
(276,556,cs),
(291,635,o),
(345,674,o),
(454,696,c)
);
}
);
width = 369;
}
);
unicode = 123;
}
{
glyphname = bar;
layers = (
{
hints = (
{
horizontal = 1;
place = (730,-20);
target = down;
type = TopGhost;
},
{
place = (25,73);
type = Stem;
}
);
layerId = "59F106EB-9104-49C8-9C07-57E2EFBDDD8D";
shapes = (
{
closed = 1;
nodes = (
(92,730,l),
(20,730,l),
(20,-190,l),
(92,-190,l)
);
}
);
width = 74;
}
);
unicode = 124;
}
{
glyphname = braceright;
layers = (
{
hints = (
{
horizontal = 1;
place = (733,-20);
target = down;
type = TopGhost;
},
{
place = (226,95);
type = Stem;
}
);
layerId = "59F106EB-9104-49C8-9C07-57E2EFBDDD8D";
shapes = (
{
closed = 1;
nodes = (
(344,277,l),
(291,288,o),
(276,319,o),
(276,361,cs),
(276,376,o),
(278,391,o),
(281,408,cs),
(288,445,o),
(304,486,o),
(312,527,cs),
(315,542,o),
(316,558,o),
(316,572,cs),
(316,666,o),
(256,733,o),
(135,733,c),
(126,697,l),
(201,675,o),
(224,652,o),
(224,600,cs),
(224,584,o),
(221,568,o),
(218,548,cs),
(210,502,o),
(199,468,o),
(193,434,cs),
(191,421,o),
(190,409,o),
(190,397,cs),
(190,335,o),
(219,288,o),
(263,264,c),
(195,236,o),
(118,187,o),
(102,94,cs),
(96,61,o),
(96,27,o),
(87,-20,cs),
(73,-99,o),
(19,-137,o),
(-91,-159,c),
(-99,-197,l),
(42,-197,o),
(168,-118,o),
(189,-3,cs),
(197,39,o),
(197,79,o),
(204,117,cs),
(218,198,o),
(260,229,o),
(337,242,c)
);
}
);
width = 369;
}
);
unicode = 125;
}
{
glyphname = asciitilde;
layers = (
{
hints = (
{
horizontal = 1;
place = (200,87);
type = Stem;
},
{
horizontal = 1;
place = (307,87);
type = Stem;
}
);
layerId = "59F106EB-9104-49C8-9C07-57E2EFBDDD8D";
shapes = (
{
closed = 1;
nodes = (
(612,404,l),
(604,352,o),
(581,290,o),
(524,290,cs),
(492,290,o),
(459,319,o),
(414,349,cs),
(369,380,o),
(345,394,o),
(295,394,cs),
(198,394,o),
(128,302,o),
(123,192,c),
(176,192,l),
(184,244,o),
(208,306,o),
(264,306,cs),
(301,306,o),
(332,281,o),
(376,251,cs),
(428,215,o),
(454,200,o),
(493,200,cs),
(592,200,o),
(660,294,o),
(665,404,c)
);
}
);
width = 745;
}
);
unicode = 126;
}
{
glyphname = exclamdown;
layers = (
{
hints = (
{
horizontal = 1;
place = (411,137);
type = Stem;
},
{
place = (118,136);
type = Stem;
}
);
layerId = "59F106EB-9104-49C8-9C07-57E2EFBDDD8D";
shapes = (
{
closed = 1;
nodes = (
(249,517,o),
(220,548,o),
(182,548,cs),
(143,548,o),
(113,517,o),
(113,479,cs),
(113,442,o),
(143,411,o),
(182,411,cs),
(220,411,o),
(249,442,o),
(249,479,cs)
);
},
{
closed = 1;
nodes = (
(170,334,o),
(164,350,o),
(146,350,cs),
(136,350,o),
(126,344,o),
(124,339,cs),
(106,276,o),
(79,179,o),
(47,94,cs),
(11,0,o),
(-14,-42,o),
(-29,-101,cs),
(-32,-111,o),
(-33,-123,o),
(-33,-133,cs),
(-33,-168,o),
(-16,-200,o),
(28,-200,cs),
(62,-200,o),
(85,-168,o),
(94,-132,cs),
(109,-74,o),
(106,-24,o),
(119,75,cs),
(130,165,o),
(156,264,o),
(169,328,cs)
);
}
);
width = 281;
}
);
unicode = 161;
}
{
glyphname = sterling;
layers = (
{
hints = (
{
horizontal = 1;
place = (-9,43);
type = Stem;
},
{
horizontal = 1;
place = (148,50);
type = Stem;
},
{
horizontal = 1;
place = (320,60);
type = Stem;
},
{
horizontal = 1;
place = (644,50);
type = Stem;
},
{
place = (-20,55);
type = Stem;
},
{
place = (166,113);
type = Stem;
},
{
place = (448,123);
type = Stem;
}
);
layerId = "59F106EB-9104-49C8-9C07-57E2EFBDDD8D";
shapes = (
{
closed = 1;
nodes = (
(566,643,o),
(509,694,o),
(412,694,cs),
(259,694,o),
(161,565,o),
(161,446,cs),
(161,421,o),
(164,400,o),
(168,380,c),
(72,380,l),
(58,324,l),
(179,324,l),
(190,296,o),
(201,262,o),
(201,222,cs),
(201,206,o),
(198,188,o),
(194,176,c),
(164,192,o),
(135,200,o),
(105,200,cs),
(45,200,o),
(-25,154,o),
(-25,80,cs),
(-25,23,o),
(23,-9,o),
(71,-9,cs),
(131,-9,o),
(177,25,o),
(210,72,c),
(242,32,o),
(281,-9,o),
(348,-9,cs),
(423,-9,o),
(470,40,o),
(515,93,c),
(488,135,l),
(457,101,o),
(422,85,o),
(378,85,cs),
(326,85,o),
(289,113,o),
(250,141,c),
(273,183,o),
(291,228,o),
(291,270,cs),
(291,287,o),
(290,308,o),
(287,324,c),
(452,324,l),
(467,380,l),
(279,380,l),
(274,411,o),
(270,439,o),
(270,472,cs),
(270,568,o),
(330,640,o),
(413,640,cs),
(441,640,o),
(460,635,o),
(480,615,c),
(456,596,o),
(446,581,o),
(446,555,cs),
(446,520,o),
(474,504,o),
(503,504,cs),
(533,504,o),
(566,525,o),
(566,580,cs)
);
},
{
closed = 1;
nodes = (
(154,64,o),
(114,33,o),
(78,33,cs),
(45,33,o),
(30,58,o),
(30,83,cs),
(30,122,o),
(58,148,o),
(97,148,cs),
(130,148,o),
(153,134,o),
(171,114,c)
);
}
);
width = 539;
}
);
unicode = 163;
}
{
glyphname = degree;
layers = (
{
hints = (
{
horizontal = 1;
place = (462,50);
type = Stem;
},
{
horizontal = 1;
place = (670,50);
type = Stem;
},
{
place = (137,55);
type = Stem;
},
{
place = (342,55);
type = Stem;
}
);
layerId = "59F106EB-9104-49C8-9C07-57E2EFBDDD8D";
shapes = (
{
closed = 1;
nodes = (
(359,678,o),
(296,740,o),
(221,740,cs),
(146,740,o),
(83,678,o),
(83,603,cs),
(83,528,o),
(146,466,o),
(221,466,cs),
(296,466,o),
(359,528,o),
(359,603,cs)
);
},
{
closed = 1;
nodes = (
(302,556,o),
(270,514,o),
(221,514,cs),
(171,514,o),
(139,556,o),
(139,603,cs),
(139,650,o),
(171,692,o),
(221,692,cs),
(270,692,o),
(302,650,o),
(302,603,cs)
);
}
);
width = 324;
}
);
unicode = 176;
}
{
glyphname = plusminus;
layers = (
{
hints = (
{
horizontal = 1;
place = (257,73);
type = Stem;
},
{
place = (357,69);
type = Stem;
}
);
layerId = "59F106EB-9104-49C8-9C07-57E2EFBDDD8D";
shapes = (
{
closed = 1;
nodes = (
(648,421,l),
(424,421,l),
(424,633,l),
(350,633,l),
(350,421,l),
(126,421,l),
(126,349,l),
(350,349,l),
(350,137,l),
(424,137,l),
(424,349,l),
(648,349,l)
);
},
{
closed = 1;
nodes = (
(648,72,l),
(126,72,l),
(126,0,l),
(648,0,l)
);
}
);
width = 745;
}
);
unicode = 177;
}
{
glyphname = periodcentered;
layers = (
{
hints = (
{
horizontal = 1;
place = (829,138);
type = Stem;
},
{
place = (144,137);
type = Stem;
}
);
layerId = "59F106EB-9104-49C8-9C07-57E2EFBDDD8D";
shapes = (
{
closed = 1;
nodes = (
(211,381,o),
(181,412,o),
(142,412,cs),
(104,412,o),
(75,381,o),
(75,344,cs),
(75,306,o),
(104,275,o),
(142,275,cs),
(181,275,o),
(211,306,o),
(211,344,cs)
);
}
);
width = 233;
}
);
unicode = 183;
}
{
glyphname = questiondown;
layers = (
{
hints = (
{
horizontal = 1;
place = (-199,50);
type = Stem;
},
{
horizontal = 1;
place = (410,137);
type = Stem;
},
{
place = (-21,113);
type = Stem;
},
{
place = (214,123);
type = Stem;
}
);
layerId = "59F106EB-9104-49C8-9C07-57E2EFBDDD8D";
shapes = (
{
closed = 1;
nodes = (
(340,516,o),
(311,547,o),
(273,547,cs),
(234,547,o),
(204,516,o),
(204,478,cs),
(204,441,o),
(234,410,o),
(273,410,cs),
(311,410,o),
(340,441,o),
(340,478,cs)
);
},
{
closed = 1;
nodes = (
(330,-45,o),
(307,-18,o),
(266,-18,cs),
(234,-18,o),
(209,-40,o),
(209,-80,cs),
(209,-91,o),
(213,-104,o),
(228,-122,c),
(213,-141,o),
(183,-152,o),
(160,-152,cs),
(121,-152,o),
(85,-130,o),
(85,-69,cs),
(85,3,o),
(113,29,o),
(183,119,cs),
(241,195,o),
(270,272,o),
(280,331,cs),
(281,336,o),
(271,350,o),
(254,350,cs),
(239,350,o),
(226,342,o),
(225,336,cs),
(207,258,o),
(183,204,o),
(91,126,cs),
(18,65,o),
(-26,21,o),
(-26,-54,cs),
(-26,-149,o),
(60,-199,o),
(153,-199,cs),
(262,-199,o),
(330,-137,o),
(330,-79,cs)
);
}
);
width = 422;
}
);
unicode = 191;
}
{
glyphname = multiply;
layers = (
{
layerId = "59F106EB-9104-49C8-9C07-57E2EFBDDD8D";
shapes = (
{
closed = 1;
nodes = (
(438,293,l),
(631,484,l),
(578,536,l),
(387,344,l),
(197,537,l),
(144,484,l),
(336,293,l),
(144,103,l),
(196,50,l),
(387,242,l),
(578,50,l),
(631,103,l)
);
}
);
width = 745;
}
);
unicode = 215;
}
{
glyphname = divide;
layers = (
{
hints = (
{
horizontal = 1;
place = (37,137);
type = Stem;
},
{
horizontal = 1;
place = (257,69);
type = Stem;
},
{
horizontal = 1;
place = (412,137);
type = Stem;
},
{
place = (323,136);
type = Stem;
}
);
layerId = "59F106EB-9104-49C8-9C07-57E2EFBDDD8D";
shapes = (
{
closed = 1;
nodes = (
(456,519,o),
(426,549,o),
(387,549,cs),
(348,549,o),
(318,519,o),
(318,480,cs),
(318,441,o),
(348,411,o),
(387,411,cs),
(426,411,o),
(456,441,o),
(456,480,cs)
);
},
{
closed = 1;
nodes = (
(653,329,l),
(121,329,l),
(121,257,l),
(653,257,l)
);
},
{
closed = 1;
nodes = (
(456,145,o),
(426,175,o),
(387,175,cs),
(348,175,o),
(318,145,o),
(318,106,cs),
(318,67,o),
(348,37,o),
(387,37,cs),
(426,37,o),
(456,67,o),
(456,106,cs)
);
}
);
width = 745;
}
);
unicode = 247;
}
{
glyphname = tilde;
layers = (
{
hints = (
{
horizontal = 1;
place = (565,69);
type = Stem;
}
);
layerId = "59F106EB-9104-49C8-9C07-57E2EFBDDD8D";
shapes = (
{
closed = 1;
nodes = (
(337,638,l),
(330,611,o),
(308,585,o),
(282,585,cs),
(264,585,o),
(253,594,o),
(229,611,cs),
(206,627,o),
(196,634,o),
(166,634,cs),
(112,634,o),
(63,579,o),
(52,513,c),
(88,513,l),
(95,540,o),
(116,566,o),
(142,566,cs),
(162,566,o),
(173,558,o),
(195,542,cs),
(222,522,o),
(235,517,o),
(258,517,cs),
(312,517,o),
(361,572,o),
(373,638,c)
);
}
);
width = 389;
}
);
unicode = 732;
}
{
glyphname = endash;
layers = (
{
hints = (
{
horizontal = 1;
place = (187,69);
type = Stem;
}
);
layerId = "59F106EB-9104-49C8-9C07-57E2EFBDDD8D";
shapes = (
{
closed = 1;
nodes = (
(54,259,l),
(34,187,l),
(496,187,l),
(516,259,l)
);
}
);
width = 545;
}
);
unicode = 8211;
}
{
glyphname = emdash;
layers = (
{
hints = (
{
horizontal = 1;
place = (187,69);
type = Stem;
}
);
layerId = "59F106EB-9104-49C8-9C07-57E2EFBDDD8D";
shapes = (
{
closed = 1;
nodes = (
(54,259,l),
(34,187,l),
(1036,187,l),
(1056,259,l)
);
}
);
width = 1085;
}
);
unicode = 8212;
}
{
glyphname = quoteleft;
layers = (
{
hints = (
{
place = (119,136);
type = Stem;
}
);
layerId = "59F106EB-9104-49C8-9C07-57E2EFBDDD8D";
shapes = (
{
closed = 1;
nodes = (
(280,743,l),
(164,693,o),
(114,596,o),
(114,531,cs),
(114,492,o),
(135,467,o),
(178,467,cs),
(217,467,o),
(249,496,o),
(249,541,cs),
(249,566,o),
(234,586,o),
(190,595,c),
(214,648,o),
(259,680,o),
(306,710,c)
);
}
);
width = 243;
}
);
unicode = 8216;
}
{
glyphname = quoteright;
layers = (
{
hints = (
{
horizontal = 1;
place = (740,-20);
target = down;
type = TopGhost;
},
{
place = (149,136);
type = Stem;
}
);
layerId = "59F106EB-9104-49C8-9C07-57E2EFBDDD8D";
shapes = (
{
closed = 1;
nodes = (
(280,715,o),
(259,740,o),
(216,740,cs),
(177,740,o),
(145,711,o),
(145,666,cs),
(145,641,o),
(160,621,o),
(204,612,c),
(180,559,o),
(135,527,o),
(89,498,c),
(115,465,l),
(230,514,o),
(280,611,o),
(280,676,cs)
);
}
);
width = 243;
}
);
unicode = 8217;
}
{
glyphname = quotesinglbase;
layers = (
{
hints = (
{
horizontal = 1;
place = (126,-20);
target = down;
type = TopGhost;
},
{
place = (-52,137);
type = Stem;
}
);
layerId = "59F106EB-9104-49C8-9C07-57E2EFBDDD8D";
shapes = (
{
closed = 1;
nodes = (
(156,105,o),
(135,130,o),
(92,130,cs),
(53,130,o),
(21,101,o),
(21,56,cs),
(21,31,o),
(36,11,o),
(80,2,c),
(56,-51,o),
(11,-83,o),
(-35,-112,c),
(-9,-145,l),
(106,-96,o),
(156,1,o),
(156,66,cs)
);
}
);
width = 243;
}
);
unicode = 8218;
}
{
glyphname = quotedblleft;
layers = (
{
hints = (
{
place = (119,136);
type = Stem;
},
{
place = (302,136);
type = Stem;
}
);
layerId = "59F106EB-9104-49C8-9C07-57E2EFBDDD8D";
shapes = (
{
closed = 1;
nodes = (
(464,742,l),
(349,693,o),
(299,596,o),
(299,531,cs),
(299,492,o),
(320,467,o),
(363,467,cs),
(402,467,o),
(433,496,o),
(433,541,cs),
(433,566,o),
(419,586,o),
(375,595,c),
(399,648,o),
(444,680,o),
(490,709,c)
);
},
{
closed = 1;
nodes = (
(280,743,l),
(164,693,o),
(114,596,o),
(114,531,cs),
(114,492,o),
(135,467,o),
(178,467,cs),
(217,467,o),
(248,496,o),
(248,541,cs),
(248,566,o),
(234,586,o),
(190,595,c),
(214,648,o),
(259,680,o),
(306,710,c)
);
}
);
width = 428;
}
);
unicode = 8220;
}
{
glyphname = quotedblright;
layers = (
{
hints = (
{
horizontal = 1;
place = (740,-20);
target = down;
type = TopGhost;
},
{
place = (151,136);
type = Stem;
},
{
place = (334,136);
type = Stem;
}
);
layerId = "59F106EB-9104-49C8-9C07-57E2EFBDDD8D";
shapes = (
{
closed = 1;
nodes = (
(465,715,o),
(444,740,o),
(401,740,cs),
(362,740,o),
(331,711,o),
(331,666,cs),
(331,641,o),
(345,621,o),
(389,612,c),
(365,559,o),
(320,527,o),
(274,498,c),
(300,465,l),
(415,514,o),
(465,611,o),
(465,676,cs)
);
},
{
closed = 1;
nodes = (
(280,715,o),
(259,740,o),
(216,740,cs),
(177,740,o),
(146,711,o),
(146,666,cs),
(146,641,o),
(160,621,o),
(204,612,c),
(180,559,o),
(135,527,o),
(89,498,c),
(115,465,l),
(230,514,o),
(280,611,o),
(280,676,cs)
);
}
);
width = 428;
}
);
unicode = 8221;
}
{
glyphname = quotedblbase;
layers = (
{
hints = (
{
horizontal = 1;
place = (130,-20);
target = down;
type = TopGhost;
},
{
place = (-63,137);
type = Stem;
},
{
place = (122,137);
type = Stem;
}
);
layerId = "59F106EB-9104-49C8-9C07-57E2EFBDDD8D";
shapes = (
{
closed = 1;
nodes = (
(341,105,o),
(320,130,o),
(277,130,cs),
(238,130,o),
(207,101,o),
(207,56,cs),
(207,31,o),
(221,11,o),
(265,2,c),
(241,-51,o),
(196,-83,o),
(150,-112,c),
(176,-145,l),
(291,-96,o),
(341,1,o),
(341,66,cs)
);
},
{
closed = 1;
nodes = (
(156,105,o),
(135,130,o),
(92,130,cs),
(53,130,o),
(22,101,o),
(22,56,cs),
(22,31,o),
(36,11,o),
(80,2,c),
(56,-51,o),
(11,-83,o),
(-35,-112,c),
(-9,-145,l),
(106,-96,o),
(156,1,o),
(156,66,cs)
);
}
);
width = 428;
}
);
unicode = 8222;
}
{
glyphname = bullet;
layers = (
{
layerId = "59F106EB-9104-49C8-9C07-57E2EFBDDD8D";
shapes = (
{
closed = 1;
nodes = (
(400,456,o),
(313,544,o),
(207,544,cs),
(100,544,o),
(13,456,o),
(13,350,cs),
(13,244,o),
(100,156,o),
(207,156,cs),
(313,156,o),
(400,244,o),
(400,350,cs)
);
}
);
width = 412;
}
);
unicode = 8226;
}
{
glyphname = ellipsis;
layers = (
{
hints = (
{
horizontal = 1;
place = (-6,137);
type = Stem;
},
{
place = (39,136);
type = Stem;
},
{
place = (356,136);
type = Stem;
},
{
place = (673,136);
type = Stem;
}
);
layerId = "59F106EB-9104-49C8-9C07-57E2EFBDDD8D";
shapes = (
{
closed = 1;
nodes = (
(721,100,o),
(691,131,o),
(652,131,cs),
(614,131,o),
(585,100,o),
(585,63,cs),
(585,25,o),
(614,-6,o),
(652,-6,cs),
(691,-6,o),
(721,25,o),
(721,63,cs)
);
},
{
closed = 1;
nodes = (
(448,100,o),
(418,131,o),
(379,131,cs),
(341,131,o),
(312,100,o),
(312,63,cs),
(312,25,o),
(341,-6,o),
(379,-6,cs),
(418,-6,o),
(448,25,o),
(448,63,cs)
);
},
{
closed = 1;
nodes = (
(175,100,o),
(145,131,o),
(106,131,cs),
(68,131,o),
(39,100,o),
(39,63,cs),
(39,25,o),
(68,-6,o),
(106,-6,cs),
(145,-6,o),
(175,25,o),
(175,63,cs)
);
}
);
width = 818;
}
);
unicode = 8230;
}
{
glyphname = Euro;
layers = (
{
hints = (
{
horizontal = 1;
place = (-9,69);
type = Stem;
},
{
horizontal = 1;
place = (257,50);
type = Stem;
},
{
horizontal = 1;
place = (376,50);
type = Stem;
},
{
horizontal = 1;
place = (644,50);
type = Stem;
},
{
place = (102,104);
type = Stem;
},
{
place = (488,123);
type = Stem;
}
);
layerId = "59F106EB-9104-49C8-9C07-57E2EFBDDD8D";
shapes = (
{
closed = 1;
nodes = (
(608,638,o),
(568,694,o),
(458,694,cs),
(304,694,o),
(194,588,o),
(135,426,c),
(61,426,l),
(51,378,l),
(119,378,l),
(113,353,o),
(107,333,o),
(103,305,c),
(37,305,l),
(28,257,l),
(98,257,l),
(98,242,o),
(97,228,o),
(97,214,c),
(99,80,o),
(168,-9,o),
(304,-9,cs),
(394,-9,o),
(482,39,o),
(535,122,c),
(507,160,l),
(450,89,o),
(394,58,o),
(329,58,cs),
(239,58,o),
(201,120,o),
(199,207,c),
(199,223,o),
(200,239,o),
(201,257,c),
(390,257,l),
(399,305,l),
(206,305,l),
(210,335,o),
(215,351,o),
(221,378,c),
(444,378,l),
(454,426,l),
(234,426,l),
(266,546,o),
(348,640,o),
(433,640,cs),
(477,640,o),
(489,631,o),
(496,628,c),
(493,617,o),
(487,595,o),
(487,584,c),
(486,551,o),
(505,526,o),
(542,526,cs),
(576,526,o),
(605,552,o),
(606,590,cs)
);
}
);
width = 559;
}
);
unicode = 8364;
}
{
glyphname = minus;
layers = (
{
hints = (
{
horizontal = 1;
place = (257,69);
type = Stem;
}
);
layerId = "59F106EB-9104-49C8-9C07-57E2EFBDDD8D";
shapes = (
{
closed = 1;
nodes = (
(648,329,l),
(126,329,l),
(126,257,l),
(648,257,l)
);
}
);
width = 745;
}
);
unicode = 8722;
}
